<svg width="32" height="40" viewBox="0 0 32 40" fill="none" xmlns="http://www.w3.org/2000/svg">
<g clip-path="url(#clip0_1638_6363)">
<path d="M31.6828 19.2307L20.7739 8.32176C20.382 7.86418 19.6934 7.81084 19.2358 8.2028C18.7782 8.59467 18.7249 9.28334 19.1168 9.74093C19.1534 9.78358 19.1931 9.82343 19.2358 9.85989L28.2792 18.9143H1.09086C0.488429 18.9143 0 19.4027 0 20.0052C0 20.6078 0.488429 21.0961 1.09086 21.0961H28.2792L19.2358 30.1395C18.7782 30.5314 18.7249 31.2201 19.1168 31.6777C19.5088 32.1353 20.1974 32.1886 20.655 31.7966C20.6976 31.7601 20.7374 31.7203 20.7739 31.6777L31.6829 20.7687C32.1058 20.3434 32.1058 19.6562 31.6828 19.2307Z" fill="white"/>
</g>
<defs>
<clipPath id="clip0_1638_6363">
<rect width="32" height="40" fill="white"/>
</clipPath>
</defs>
</svg>
