<svg width="32" height="40" viewBox="0 0 32 40" fill="none" xmlns="http://www.w3.org/2000/svg">
<g clip-path="url(#clip0_1638_6361)">
<path d="M0.317242 19.2307L11.2261 8.32176C11.618 7.86418 12.3066 7.81084 12.7642 8.2028C13.2218 8.59467 13.2751 9.28334 12.8832 9.74093C12.8466 9.78358 12.8069 9.82343 12.7642 9.85989L3.72077 18.9143H30.9091C31.5116 18.9143 32 19.4027 32 20.0052C32 20.6078 31.5116 21.0961 30.9091 21.0961H3.72077L12.7642 30.1395C13.2218 30.5314 13.2751 31.2201 12.8832 31.6777C12.4912 32.1353 11.8026 32.1886 11.345 31.7966C11.3024 31.7601 11.2626 31.7203 11.2261 31.6777L0.317146 20.7687C-0.105751 20.3434 -0.105751 19.6562 0.317242 19.2307Z" fill="white"/>
</g>
<defs>
<clipPath id="clip0_1638_6361">
<rect width="32" height="40" fill="white" transform="matrix(-1 0 0 1 32 0)"/>
</clipPath>
</defs>
</svg>
