<svg width="48" height="40" viewBox="0 0 48 40" fill="none" xmlns="http://www.w3.org/2000/svg">
<g clip-path="url(#clip0_739_1177)">
<path d="M47.6828 19.2309L36.7739 8.32201C36.382 7.86442 35.6934 7.81108 35.2358 8.20304C34.7782 8.59491 34.7249 9.28359 35.1168 9.74117C35.1534 9.78383 35.1931 9.82367 35.2358 9.86014L44.2792 18.9145H1.09086C0.488429 18.9145 0 19.403 0 20.0055C0 20.608 0.488429 21.0963 1.09086 21.0963H44.2792L35.2358 30.1398C34.7782 30.5317 34.7249 31.2203 35.1168 31.6779C35.5088 32.1355 36.1974 32.1888 36.655 31.7969C36.6976 31.7603 36.7374 31.7206 36.7739 31.6779L47.6829 20.769C48.1058 20.3436 48.1058 19.6565 47.6828 19.2309Z" fill="white"/>
</g>
<defs>
<clipPath id="clip0_739_1177">
<rect width="48" height="40" fill="white"/>
</clipPath>
</defs>
</svg>
