<svg width="48" height="40" viewBox="0 0 48 40" fill="none" xmlns="http://www.w3.org/2000/svg">
<g clip-path="url(#clip0_739_1175)">
<path d="M0.317245 19.2309L11.2261 8.32201C11.618 7.86442 12.3066 7.81108 12.7642 8.20304C13.2218 8.59491 13.2751 9.28359 12.8832 9.74117C12.8466 9.78383 12.8069 9.82367 12.7642 9.86014L3.72078 18.9145H46.9091C47.5116 18.9145 48 19.403 48 20.0055C48 20.608 47.5116 21.0963 46.9091 21.0963H3.72078L12.7642 30.1398C13.2218 30.5317 13.2751 31.2203 12.8832 31.6779C12.4912 32.1355 11.8026 32.1888 11.3451 31.7969C11.3024 31.7603 11.2626 31.7206 11.2261 31.6779L0.31715 20.769C-0.105751 20.3436 -0.105747 19.6565 0.317245 19.2309Z" fill="white"/>
</g>
<defs>
<clipPath id="clip0_739_1175">
<rect width="48" height="40" fill="white" transform="matrix(-1 0 0 1 48 0)"/>
</clipPath>
</defs>
</svg>
