<svg width="40" height="40" viewBox="0 0 40 40" fill="none" xmlns="http://www.w3.org/2000/svg">
<path d="M11.4697 19.4697C11.1768 19.7626 11.1768 20.2374 11.4697 20.5303L16.2426 25.3033C16.5355 25.5962 17.0104 25.5962 17.3033 25.3033C17.5962 25.0104 17.5962 24.5355 17.3033 24.2426L13.0607 20L17.3033 15.7574C17.5962 15.4645 17.5962 14.9896 17.3033 14.6967C17.0104 14.4038 16.5355 14.4038 16.2426 14.6967L11.4697 19.4697ZM28 20.75C28.4142 20.75 28.75 20.4142 28.75 20C28.75 19.5858 28.4142 19.25 28 19.25L28 20L28 20.75ZM12 20L12 20.75L28 20.75L28 20L28 19.25L12 19.25L12 20Z" fill="black"/>
<circle cx="20" cy="20" r="19.25" stroke="black" stroke-width="1.5"/>
</svg>
