<svg width="18" height="12" viewBox="0 0 18 12" fill="none" xmlns="http://www.w3.org/2000/svg">
<path d="M0.75 4.77298C0.335786 4.77298 3.62117e-08 5.10877 0 5.52298C-3.62117e-08 5.93719 0.335786 6.27298 0.75 6.27298L0.75 5.52298L0.75 4.77298ZM17.2803 6.05331C17.5732 5.76042 17.5732 5.28554 17.2803 4.99265L12.5074 0.21968C12.2145 -0.0732135 11.7396 -0.0732136 11.4467 0.21968C11.1538 0.512573 11.1538 0.987447 11.4467 1.28034L15.6893 5.52298L11.4467 9.76562C11.1538 10.0585 11.1538 10.5334 11.4467 10.8263C11.7396 11.1192 12.2145 11.1192 12.5074 10.8263L17.2803 6.05331ZM0.75 5.52298L0.75 6.27298L16.75 6.27298L16.75 5.52298L16.75 4.77298L0.75 4.77298L0.75 5.52298Z" fill="black"/>
</svg>