<svg width="18" height="12" viewBox="0 0 18 12" fill="none" xmlns="http://www.w3.org/2000/svg">
<path d="M0.21967 4.99265C-0.0732233 5.28554 -0.0732233 5.76042 0.21967 6.05331L4.99264 10.8263C5.28553 11.1192 5.76041 11.1192 6.0533 10.8263C6.34619 10.5334 6.34619 10.0585 6.0533 9.76562L1.81066 5.52298L6.0533 1.28034C6.34619 0.987446 6.34619 0.512573 6.0533 0.219679C5.76041 -0.0732141 5.28553 -0.0732141 4.99264 0.219679L0.21967 4.99265ZM16.75 6.27298C17.1642 6.27298 17.5 5.93719 17.5 5.52298C17.5 5.10877 17.1642 4.77298 16.75 4.77298L16.75 5.52298L16.75 6.27298ZM0.75 5.52298L0.75 6.27298L16.75 6.27298L16.75 5.52298L16.75 4.77298L0.75 4.77298L0.75 5.52298Z" fill="black"/>
</svg>
