<svg width="26" height="26" viewBox="0 0 26 26" fill="none" xmlns="http://www.w3.org/2000/svg">
<path fill-rule="evenodd" clip-rule="evenodd" d="M19.6902 7.58855C19.8601 7.75841 19.8601 8.03382 19.6902 8.20369L10.7649 17.1284C10.6833 17.21 10.5727 17.2558 10.4573 17.2558C10.342 17.2558 10.2313 17.21 10.1498 17.1284L6.57096 13.5683C6.4011 13.3984 6.4011 13.123 6.57096 12.9531C6.74083 12.7833 7.01624 12.7833 7.1861 12.9531L10.4573 16.2057L19.0751 7.58855C19.2449 7.41868 19.5203 7.41868 19.6902 7.58855Z" fill="white"/>
<path d="M10.4836 16.7024C10.4663 16.7033 10.4492 16.7032 10.4319 16.7024L10.4572 16.7287L10.4836 16.7024ZM10.4572 17.7561C10.2097 17.756 9.97331 17.6565 9.79807 17.4817L9.79709 17.4826L6.21799 13.9231L6.21701 13.9221C5.85206 13.5571 5.85222 12.9649 6.21701 12.5998C6.58211 12.2347 7.17414 12.2348 7.53928 12.5998L10.4563 15.4992L18.7219 7.23458C19.0871 6.86985 19.6792 6.86959 20.0442 7.23458L20.1076 7.30587C20.3875 7.64874 20.3875 8.1437 20.1076 8.48654L20.0442 8.55685L11.1184 17.4817C10.943 17.657 10.7052 17.7561 10.4572 17.7561Z" fill="white"/>
</svg>
