<svg width="429" height="75" viewBox="0 0 429 75" fill="none" xmlns="http://www.w3.org/2000/svg">
<path d="M37.4914 0.108118C37.6681 0.474635 37.7757 0.870371 37.8086 1.27558L40.5809 8.29328L44.9697 20.0889L55.7548 46.8712L62.9071 63.9809L65.7968 70.8992L66.6441 72.7066H48.4937L41.6542 51.7616C41.27 51.681 40.8778 51.6447 40.4853 51.6535H36.631C35.3274 51.5497 32.5768 51.5497 28.4184 51.5497H26.9149C21.3659 51.5497 20.2926 51.6535 18.4763 51.6535C17.9771 51.6393 17.4777 51.6755 16.9858 51.7616L9.39892 72.6936H0L18.7978 28.6978C20.9357 23.5956 23.6038 16.7984 26.702 8.29328C28.0925 4.57471 28.9528 1.91551 29.4786 0.10379L37.4914 0.108118ZM29.4786 21.0488L19.8711 44.8519C20.3653 44.9308 20.8656 44.9641 21.3659 44.9514C22.3262 45.0681 24.6727 45.0681 28.6183 45.0681C33.2199 45.0681 35.8836 45.0681 36.8526 44.9514C37.4222 44.9648 37.9919 44.9315 38.556 44.8519L29.4786 21.0488Z" fill="#06070E"/>
<path d="M112.109 5.10654L108.576 16.6903H107.299C105.161 10.3125 99.7119 6.69773 93.3025 6.69773C87.2191 6.69773 83.052 10.3125 83.052 15.7347C83.0488 17.6898 83.6848 19.593 84.8639 21.1569C85.8495 22.5355 87.0807 23.7226 88.4966 24.6592C89.6699 25.4073 92.8767 27.1023 98.1041 29.7658C100.914 31.1379 103.628 32.6981 106.226 34.4356C112.309 38.6903 115.407 44.3201 115.407 51.3378C115.509 56.8342 113.487 62.1599 109.758 66.2164C104.952 71.3099 97.9042 73.8653 88.7139 73.8653C81.6614 73.8653 75.5823 72.2742 70.3506 69.0831L73.766 54.8401H75.2651C77.0728 63.2372 82.2176 67.3795 90.5389 67.3795C97.687 67.3795 102.171 63.4447 102.171 57.3869C102.171 54.5202 101.324 52.1982 99.512 50.3735C97.687 48.4537 94.2759 46.2226 89.2571 43.7839C86.3718 42.2965 83.4908 40.701 80.8185 39.1098C73.9789 34.9617 70.5577 29.2239 70.5548 21.8963C70.5548 15.6237 72.797 10.4163 77.2814 6.274C81.87 2.12737 87.5363 0 94.3672 0C100.564 0 106.434 1.70362 112.109 5.10654Z" fill="#06070E"/>
<path d="M184.889 5.53463L182.121 18.2858H180.513C177.845 10.5244 171.549 6.61129 161.611 6.61129C154.35 6.61129 148.575 9.36994 144.317 15.0126C140.141 20.5256 138.012 27.8633 138.012 37.1121C138.012 46.1491 139.928 53.5819 143.773 59.3241C147.619 64.7246 154.563 67.9113 162.571 67.9113C170.58 67.9113 177.306 65.3602 182.76 60.3704L184.137 60.6861L181.682 69.5112L180.405 70.0344C175.599 71.6342 171.862 72.7974 169.081 73.3335C165.877 73.9274 162.623 74.217 159.364 74.1983C136.074 74.1983 120.691 59.3154 120.691 37.7477C120.47 15.6396 136.925 0.012998 161.168 0.337291C168.976 0.319996 176.88 2.01929 184.889 5.53463Z" fill="#06070E"/>
<path d="M223.041 0.108109C223.217 0.474796 223.324 0.870445 223.358 1.27557L226.135 8.29327L230.51 20.0889L241.304 46.8712L248.461 63.9809L251.342 70.8991L252.211 72.7066H234.039L227.203 51.7702C226.818 51.6889 226.424 51.6526 226.03 51.6621H222.189C220.885 51.5583 218.13 51.5583 213.963 51.5583H212.486C206.937 51.5583 205.864 51.6621 204.052 51.6621C203.551 51.6476 203.05 51.6838 202.557 51.7702L194.979 72.7066H185.545L204.347 28.7065C206.476 23.6042 209.153 16.8071 212.247 8.30192C213.637 4.58336 214.489 1.92415 215.028 0.112437L223.041 0.108109ZM215.037 21.0488L205.42 44.8562C205.916 44.9353 206.418 44.9686 206.92 44.9557C207.871 45.0724 210.226 45.0724 214.176 45.0724C218.765 45.0724 221.446 45.0724 222.402 44.9557C222.974 44.9692 223.547 44.9359 224.114 44.8562L215.037 21.0488Z" fill="#06070E"/>
<path d="M322.527 1.81171C322.414 2.98349 322.314 3.61478 322.314 3.71855C322.21 5.32272 321.993 8.29325 321.88 12.6518C321.671 17.6415 321.558 21.3558 321.558 24.0193V52.3971C321.558 53.2619 321.667 56.3232 321.88 61.5379C321.993 65.4726 322.092 68.6593 322.314 71.1024C322.314 71.5347 322.414 71.8417 322.414 72.6979H313.015C312.611 72.2761 312.254 71.8122 311.95 71.3142C310.773 69.9306 308.118 66.8563 305.433 63.9636C301.057 58.9738 298.597 56.0984 297.963 55.5709L267.841 23.0507L267.733 59.1813C267.733 60.4526 267.841 62.6923 268.058 65.771C268.171 68.0021 268.263 70.2376 268.593 72.6892H259.294C259.388 72.0916 259.423 71.4862 259.398 70.8818C259.503 69.5025 259.72 66.7352 259.833 62.5972C260.047 55.679 260.156 50.682 260.159 47.6062V30.1809C260.159 22.6356 260.046 17.2091 259.946 13.9273C259.833 9.24883 259.511 5.20597 259.077 1.82035H270.713L313.98 49.3185V29.7658L313.762 17.0103C313.658 11.1643 313.55 6.69772 313.328 3.511C313.29 2.94096 313.219 2.37359 313.115 1.81171H322.527Z" fill="#06070E"/>
<path d="M355.729 1.81175C354.982 9.24887 354.66 17.6459 354.66 27.1023V46.9923C354.66 49.6471 354.769 55.6012 355.095 65.0619C355.303 68.5671 355.516 71.1168 355.733 72.7109H337.683L337.792 70.7997C338.226 65.9094 338.43 62.0827 338.535 59.4278C338.639 56.773 338.735 52.3107 338.735 46.0237V26.5661C338.735 22.8432 338.639 18.2772 338.426 12.6475C338.213 7.6447 337.992 4.03856 337.679 1.80742L355.729 1.81175Z" fill="#06070E"/>
<path d="M399.834 0.108109C400.015 0.473723 400.125 0.869645 400.16 1.27557L402.928 8.29327L407.313 20.0889L418.098 46.8712L425.25 63.9809L428.131 70.8991L429 72.7066H410.832L404.001 51.7702C403.613 51.6895 403.216 51.6532 402.819 51.6621H398.978C397.701 51.5583 394.924 51.5583 390.753 51.5583H389.266C383.709 51.5583 382.635 51.6621 380.824 51.6621C380.324 51.6479 379.825 51.6841 379.333 51.7702L371.75 72.7066H362.352L381.141 28.7065C383.274 23.6042 385.947 16.8071 389.049 8.30192C390.44 4.58336 391.296 1.92415 391.821 0.112437L399.834 0.108109ZM391.821 21.0488L382.214 44.8562C382.707 44.9354 383.206 44.9687 383.704 44.9557C384.665 45.0724 387.02 45.0724 390.965 45.0724C395.567 45.0724 398.231 45.0724 399.187 44.9557C399.761 44.9693 400.335 44.9361 400.903 44.8562L391.821 21.0488Z" fill="#06070E"/>
</svg>
