<svg width="24" height="24" viewBox="0 0 24 24" fill="none" xmlns="http://www.w3.org/2000/svg">
<path d="M22 19.7778V17.949C22 17.0403 21.4468 16.2232 20.6031 15.8857L18.3429 14.9816C17.2698 14.5524 16.0469 15.0174 15.53 16.0511L15.3333 16.4444C15.3333 16.4444 12.5556 15.8889 10.3333 13.6667C8.11111 11.4444 7.55556 8.66667 7.55556 8.66667L7.94891 8.46999C8.98264 7.95312 9.44762 6.73015 9.01838 5.65706L8.11432 3.39691C7.77685 2.55323 6.95971 2 6.05104 2H4.22222C2.99492 2 2 2.99492 2 4.22222C2 14.0406 9.95938 22 19.7778 22C21.0051 22 22 21.0051 22 19.7778Z" stroke="#64AAE1" stroke-width="1.5" stroke-linejoin="round"/>
</svg>
