<svg width="26" height="26" viewBox="0 0 26 26" fill="none" xmlns="http://www.w3.org/2000/svg">
<path d="M13 0.75C11.0723 0.751016 9.18818 1.32329 7.58559 2.39453C5.983 3.46578 4.73383 4.98794 3.99586 6.76875C3.2579 8.54955 3.06425 10.5091 3.43937 12.3999C3.81449 14.2907 4.74155 16.028 6.10346 17.3922C7.86929 19.158 12.025 21.7125 12.2709 24.3959C12.3077 24.7968 12.5991 25.125 13 25.125C13.4008 25.125 13.6933 24.7968 13.729 24.3959C13.975 21.7125 18.1274 19.1623 19.8921 17.3976C21.2556 16.0339 22.1842 14.2966 22.5606 12.4053C22.9369 10.514 22.744 8.55353 22.0064 6.77178C21.2687 4.99004 20.0194 3.46699 18.4163 2.39515C16.8132 1.32331 14.9284 0.750803 13 0.75Z" fill="#FF4433"/>
<path d="M13.0001 13.8357C12.5621 13.8357 12.1284 13.7494 11.7237 13.5818C11.319 13.4142 10.9513 13.1685 10.6415 12.8587C10.3318 12.549 10.0861 12.1813 9.91846 11.7766C9.75083 11.3719 9.66455 10.9382 9.66455 10.5001C9.66455 10.0621 9.75083 9.62835 9.91846 9.22366C10.0861 8.81897 10.3318 8.45126 10.6415 8.14152C10.9513 7.83178 11.319 7.58609 11.7237 7.41846C12.1284 7.25083 12.5621 7.16455 13.0001 7.16455C13.8848 7.16455 14.7332 7.51598 15.3587 8.14152C15.9843 8.76706 16.3357 9.61548 16.3357 10.5001C16.3357 11.3848 15.9843 12.2332 15.3587 12.8587C14.7332 13.4843 13.8848 13.8357 13.0001 13.8357Z" fill="#F6F6F6"/>
</svg>
