<svg width="73" height="92" viewBox="0 0 73 92" fill="none" xmlns="http://www.w3.org/2000/svg">
<path d="M36.6683 90C36.6683 90 21.9166 74.7347 14.8861 67.3167C12.1135 64.3909 9.23714 61.4602 7.0117 58.1018C-1.0573 45.923 -0.94401 29.8289 6.99258 17.3849C15.0951 4.68069 29.3124 -1.27525 44.2044 1.79472C57.4853 4.53316 68.5774 16.2577 71.2479 30.4953C73.6041 43.062 70.3928 54.1268 62.0558 63.3466C54.3122 71.9117 36.6683 90 36.6683 90Z" fill="#F6F6F6" stroke="black" stroke-width="2" stroke-miterlimit="10"/>
<g clip-path="url(#clip0_725_929)">
<path d="M12.1563 39.4064C12.1806 39.4571 12.1954 39.512 12.1999 39.5681L12.5812 40.5404L13.1848 42.1746L14.6681 45.8851L15.6517 48.2555L16.0492 49.214L16.1657 49.4644H13.6694L12.7288 46.5626C12.6759 46.5514 12.622 46.5464 12.568 46.5476H12.0379C11.8586 46.5333 11.4804 46.5333 10.9084 46.5333H10.7017C9.9385 46.5333 9.79088 46.5476 9.54108 46.5476C9.47242 46.5457 9.40374 46.5507 9.3361 46.5626L8.29265 49.4626H7L9.5853 43.3673C9.87933 42.6604 10.2463 41.7187 10.6724 40.5404C10.8636 40.0252 10.9819 39.6568 11.0543 39.4058L12.1563 39.4064ZM11.0543 42.3076L9.73291 45.6053C9.80087 45.6162 9.86969 45.6209 9.9385 45.6191C10.0706 45.6353 10.3933 45.6353 10.9359 45.6353C11.5688 45.6353 11.9351 45.6353 12.0684 45.6191C12.1467 45.621 12.2251 45.6163 12.3027 45.6053L11.0543 42.3076Z" fill="#06070E"/>
<path d="M22.4184 40.0986L21.9326 41.7034H21.7569C21.4628 40.8198 20.7134 40.319 19.8319 40.319C18.9953 40.319 18.4221 40.8198 18.4221 41.5711C18.4217 41.8419 18.5092 42.1056 18.6713 42.3223C18.8069 42.5133 18.9762 42.6777 19.171 42.8075C19.3323 42.9111 19.7734 43.146 20.4923 43.515C20.8788 43.7051 21.2519 43.9212 21.6092 44.1619C22.4459 44.7514 22.872 45.5314 22.872 46.5036C22.886 47.2651 22.6079 48.003 22.0951 48.565C21.4341 49.2706 20.4648 49.6247 19.2008 49.6247C18.2309 49.6247 17.3948 49.4042 16.6753 48.9621L17.145 46.9889H17.3512C17.5998 48.1522 18.3074 48.7261 19.4518 48.7261C20.4349 48.7261 21.0517 48.181 21.0517 47.3417C21.0517 46.9445 20.9351 46.6228 20.6859 46.37C20.4349 46.1041 19.9658 45.795 19.2755 45.4571C18.8787 45.251 18.4825 45.03 18.115 44.8095C17.1743 44.2348 16.7038 43.4399 16.7034 42.4247C16.7034 41.5557 17.0118 40.8342 17.6285 40.2603C18.2596 39.6858 19.0389 39.3911 19.9783 39.3911C20.8305 39.3911 21.6379 39.6271 22.4184 40.0986Z" fill="#06070E"/>
<path d="M32.4282 40.1578L32.0475 41.9244H31.8264C31.4594 40.8491 30.5935 40.3069 29.2267 40.3069C28.2281 40.3069 27.4339 40.6891 26.8482 41.4709C26.2739 42.2347 25.981 43.2512 25.981 44.5326C25.981 45.7846 26.2446 46.8144 26.7735 47.6099C27.3024 48.3581 28.2574 48.7996 29.3588 48.7996C30.4602 48.7996 31.3853 48.4462 32.1353 47.7549L32.3248 47.7986L31.9871 49.0213L31.8114 49.0938C31.1505 49.3154 30.6365 49.4766 30.254 49.5509C29.8134 49.6331 29.366 49.6732 28.9178 49.6707C25.7145 49.6707 23.5989 47.6087 23.5989 44.6207C23.5685 41.5577 25.8316 39.3928 29.1658 39.4377C30.2397 39.4353 31.3268 39.6707 32.4282 40.1578Z" fill="#06070E"/>
<path d="M37.6754 39.4062C37.6997 39.4571 37.7144 39.5119 37.719 39.568L38.1009 40.5403L38.7027 42.1745L40.1872 45.885L41.1715 48.2554L41.5677 49.2139L41.6872 49.4643H39.188L38.2479 46.5637C38.1949 46.5524 38.1408 46.5474 38.0866 46.5487H37.5583C37.379 46.5343 37.0001 46.5343 36.427 46.5343H36.2238C35.4606 46.5343 35.313 46.5487 35.0638 46.5487C34.995 46.5467 34.9261 46.5517 34.8582 46.5637L33.816 49.4643H32.5186L35.1045 43.3684C35.3973 42.6615 35.7654 41.7198 36.1909 40.5414C36.3822 40.0263 36.4993 39.6579 36.5734 39.4068L37.6754 39.4062ZM36.5746 42.3074L35.2521 45.6058C35.3202 45.6168 35.3892 45.6214 35.4582 45.6196C35.5891 45.6358 35.913 45.6358 36.4563 45.6358C37.0874 45.6358 37.4561 45.6358 37.5876 45.6196C37.6663 45.6215 37.745 45.6169 37.823 45.6058L36.5746 42.3074Z" fill="#06070E"/>
<path d="M51.3578 39.6421C51.3423 39.8044 51.3285 39.8919 51.3285 39.9063C51.3142 40.1285 51.2843 40.5401 51.2687 41.1439C51.2401 41.8352 51.2245 42.3498 51.2245 42.7188V46.6504C51.2245 46.7702 51.2395 47.1943 51.2687 47.9168C51.2843 48.4619 51.298 48.9034 51.3285 49.2419C51.3285 49.3018 51.3423 49.3443 51.3423 49.4629H50.0496C49.9941 49.4045 49.945 49.3402 49.9032 49.2712C49.7412 49.0795 49.3761 48.6536 49.0068 48.2528C48.405 47.5615 48.0667 47.1632 47.9794 47.0901L43.8367 42.5846L43.8218 47.5903C43.8218 47.7664 43.8367 48.0767 43.8666 48.5032C43.8822 48.8123 43.8947 49.122 43.9401 49.4617H42.6612C42.6741 49.3789 42.6789 49.295 42.6756 49.2113C42.6899 49.0202 42.7198 48.6368 42.7353 48.0635C42.7648 47.105 42.7798 46.4127 42.7802 45.9866V43.5725C42.7802 42.5271 42.7646 41.7753 42.7509 41.3206C42.7353 40.6725 42.6911 40.1123 42.6313 39.6433H44.2318L50.1823 46.2238V43.5149L50.1524 41.7478C50.1381 40.9378 50.1231 40.319 50.0926 39.8775C50.0874 39.7985 50.0776 39.7199 50.0633 39.6421H51.3578Z" fill="#06070E"/>
<path d="M55.9239 39.6422C55.8211 40.6726 55.7769 41.8359 55.7769 43.146V45.9017C55.7769 46.2695 55.7918 47.0944 55.8367 48.4051C55.8654 48.8907 55.8946 49.244 55.9245 49.4648H53.442L53.4569 49.2C53.5167 48.5225 53.5448 47.9924 53.5591 47.6245C53.5735 47.2567 53.5866 46.6385 53.5866 45.7675V43.0718C53.5866 42.556 53.5735 41.9234 53.5442 41.1434C53.5149 40.4503 53.4844 39.9507 53.4414 39.6416L55.9239 39.6422Z" fill="#06070E"/>
<path d="M61.99 39.4062C62.0149 39.4569 62.0301 39.5118 62.0349 39.568L62.4155 40.5403L63.0185 42.1745L64.5018 45.885L65.4855 48.2554L65.8817 49.2139L66.0013 49.4643H63.5026L62.5631 46.5637C62.5097 46.5525 62.4552 46.5475 62.4006 46.5487H61.8723C61.6966 46.5343 61.3147 46.5343 60.741 46.5343H60.5366C59.7723 46.5343 59.6247 46.5487 59.3754 46.5487C59.3068 46.5467 59.2381 46.5518 59.1705 46.5637L58.1276 49.4643H56.835L59.4191 43.3684C59.7125 42.6615 60.08 41.7198 60.5067 40.5414C60.698 40.0263 60.8157 39.6579 60.888 39.4068L61.99 39.4062ZM60.888 42.3074L59.5667 45.6058C59.6344 45.6168 59.7031 45.6214 59.7717 45.6196C59.9037 45.6358 60.2276 45.6358 60.7703 45.6358C61.4032 45.6358 61.7695 45.6358 61.901 45.6196C61.9799 45.6215 62.0589 45.6169 62.137 45.6058L60.888 42.3074Z" fill="#06070E"/>
<path d="M15.2104 54.551V54.2646H17.675V54.551H15.2104Z" fill="#06070E"/>
<path d="M20.1237 54.5086C20.1237 54.853 20.1237 55.116 19.9211 55.3221C19.7734 55.4659 19.5755 55.5464 19.3695 55.5464C19.1636 55.5464 18.9657 55.4659 18.8179 55.3221C18.6177 55.119 18.6147 54.8333 18.6147 54.5206V54.3822C18.6147 54.0371 18.6416 53.8137 18.8179 53.6376C18.9655 53.4933 19.1634 53.4126 19.3695 53.4126C19.5756 53.4126 19.7736 53.4933 19.9211 53.6376C20.0825 53.8017 20.1237 54.0347 20.1237 54.3331V54.5086ZM19.6797 53.8281C19.6389 53.787 19.5904 53.7543 19.5369 53.7321C19.4835 53.7098 19.4262 53.6983 19.3683 53.6983C19.3105 53.6983 19.2532 53.7098 19.1998 53.7321C19.1463 53.7543 19.0978 53.787 19.057 53.8281C18.9375 53.9521 18.9375 54.1581 18.9375 54.4271V54.6068C18.9375 54.8231 18.9452 55.0196 19.057 55.1322C19.0973 55.1738 19.1456 55.2068 19.1991 55.2292C19.2525 55.2515 19.3099 55.2628 19.3677 55.2622C19.4259 55.2635 19.4837 55.2526 19.5374 55.2302C19.5911 55.2078 19.6396 55.1744 19.6797 55.1322C19.8034 55.0022 19.8034 54.8159 19.8034 54.4601C19.8034 54.1402 19.7968 53.9521 19.6797 53.8281Z" fill="#06070E"/>
<path d="M21.436 55.546C21.3341 55.5475 21.2328 55.5285 21.1384 55.49C21.0439 55.4515 20.9582 55.3944 20.8862 55.322C20.6806 55.1159 20.6836 54.8829 20.6836 54.4785C20.6836 54.0742 20.68 53.8423 20.8862 53.6368C20.958 53.5642 21.0437 53.5069 21.1382 53.4683C21.2327 53.4297 21.334 53.4106 21.436 53.4122C21.8215 53.4122 22.1101 53.6392 22.1836 54.058H21.8597C21.8095 53.8459 21.6691 53.6986 21.436 53.6986C21.3787 53.6973 21.3218 53.7079 21.2687 53.7297C21.2157 53.7514 21.1677 53.7838 21.1276 53.825C21.0242 53.937 21.0009 54.058 21.0009 54.4791C21.0009 54.9002 21.0242 55.0224 21.1276 55.1339C21.1675 55.1752 21.2155 55.2079 21.2686 55.2298C21.3216 55.2518 21.3786 55.2625 21.436 55.2615C21.6691 55.2615 21.8125 55.1129 21.8627 54.902H22.1836C22.1131 55.3196 21.8155 55.546 21.436 55.546Z" fill="#06070E"/>
<path d="M23.9377 55.5285V54.6108H23.0897V55.5273H22.7729V53.4307H23.0897V54.3292H23.9371V53.4307H24.258V55.5273L23.9377 55.5285Z" fill="#06070E"/>
<path d="M26.3991 54.5085C26.3991 54.853 26.3991 55.116 26.1965 55.322C26.0489 55.4658 25.8511 55.5463 25.6452 55.5463C25.4394 55.5463 25.2416 55.4658 25.0939 55.322C24.8931 55.119 24.8901 54.8332 24.8901 54.5205V54.3821C24.8901 54.0371 24.917 53.8136 25.0939 53.6375C25.2414 53.4933 25.4392 53.4126 25.6452 53.4126C25.8512 53.4126 26.0491 53.4933 26.1965 53.6375C26.3585 53.8017 26.3991 54.0347 26.3991 54.333V54.5085ZM25.9563 53.828C25.9159 53.7861 25.8674 53.7529 25.8138 53.7306C25.7601 53.7082 25.7024 53.6971 25.6443 53.698C25.5862 53.6974 25.5285 53.7085 25.4748 53.7309C25.421 53.7532 25.3724 53.7863 25.3318 53.828C25.2123 53.952 25.2123 54.1581 25.2123 54.4271V54.6068C25.2123 54.823 25.2206 55.0195 25.3318 55.1321C25.3724 55.1738 25.4211 55.2068 25.4748 55.2292C25.5285 55.2515 25.5862 55.2627 25.6443 55.2621C25.7025 55.2634 25.7603 55.2525 25.814 55.2301C25.8677 55.2077 25.9162 55.1744 25.9563 55.1321C26.0794 55.0022 26.0794 54.8158 26.0794 54.46C26.0794 54.1401 26.0734 53.952 25.9563 53.828Z" fill="#06070E"/>
<path d="M27.8833 55.5283H27.0371V53.4316H27.8511C28.2329 53.4316 28.4828 53.6557 28.4828 53.9977C28.4871 54.0935 28.4624 54.1882 28.4121 54.2697C28.3618 54.3511 28.2881 54.4155 28.2007 54.4542C28.4063 54.5519 28.515 54.7016 28.515 54.9406C28.5144 55.3013 28.2754 55.5283 27.8833 55.5283ZM27.8236 53.7156H27.3533V54.3146H27.8236C28.0351 54.3146 28.1648 54.2032 28.1648 54.0151C28.1648 53.827 28.0363 53.7156 27.8248 53.7156H27.8236ZM27.8499 54.6034H27.3533V55.2426H27.8499C28.0626 55.2426 28.1941 55.1186 28.1941 54.9215C28.1941 54.7244 28.0638 54.6034 27.8511 54.6034H27.8499Z" fill="#06070E"/>
<path d="M37.299 55.5283H36.4521V53.4316H37.2661C37.6486 53.4316 37.899 53.6557 37.899 53.9977C37.9033 54.0935 37.8785 54.1884 37.8281 54.2698C37.7777 54.3513 37.7038 54.4156 37.6163 54.4542C37.8225 54.5519 37.9313 54.7016 37.9313 54.9406C37.9313 55.3013 37.6892 55.5283 37.299 55.5283ZM37.2392 53.7156H36.7683V54.3146H37.2392C37.4502 54.3146 37.5799 54.2032 37.5799 54.0151C37.5799 53.827 37.4514 53.7156 37.2392 53.7156ZM37.2649 54.6034H36.7683V55.2426H37.2649C37.4777 55.2426 37.6085 55.1186 37.6085 54.9215C37.6085 54.7244 37.4783 54.6034 37.2661 54.6034H37.2649Z" fill="#06070E"/>
<path d="M30.3577 55.5283L30.21 55.109H29.3847L29.2365 55.5283H28.9019L29.6692 53.4316H29.925L30.6893 55.5283H30.3577ZM29.8043 53.9043L29.4756 54.8358H30.1276L29.8043 53.9043Z" fill="#06070E"/>
<path d="M32.3204 55.5285V54.6108H31.473V55.5273H31.1562V53.4307H31.473V54.3292H32.3204V53.4307H32.6378V55.5273L32.3204 55.5285Z" fill="#06070E"/>
<path d="M34.7828 54.5084C34.7828 54.8528 34.7828 55.1158 34.5802 55.3219C34.4324 55.4655 34.2345 55.5459 34.0286 55.5459C33.8227 55.5459 33.6249 55.4655 33.477 55.3219C33.2774 55.1188 33.2744 54.833 33.2744 54.5203V54.382C33.2744 54.0369 33.3013 53.8135 33.477 53.6373C33.6246 53.4932 33.8226 53.4126 34.0286 53.4126C34.2347 53.4126 34.4326 53.4932 34.5802 53.6373C34.7422 53.8015 34.7828 54.0345 34.7828 54.3328V54.5084ZM34.3394 53.8278C34.299 53.7859 34.2505 53.7527 34.1969 53.7303C34.1432 53.708 34.0855 53.6969 34.0274 53.6978C33.9694 53.6973 33.9118 53.7085 33.8582 53.7308C33.8045 53.7532 33.756 53.7862 33.7155 53.8278C33.5959 53.9518 33.5959 54.1579 33.5959 54.4269V54.6066C33.5959 54.8229 33.6037 55.0193 33.7155 55.132C33.756 55.1736 33.8046 55.2066 33.8582 55.2289C33.9118 55.2512 33.9694 55.2625 34.0274 55.262C34.0856 55.2632 34.1434 55.2523 34.1971 55.2299C34.2508 55.2076 34.2992 55.1742 34.3394 55.132C34.4631 55.002 34.4631 54.8157 34.4631 54.4598C34.4631 54.1399 34.4565 53.9518 34.3394 53.8278Z" fill="#06070E"/>
<path d="M39.3105 55.5286V55.2608L40.1167 54.2789C40.1877 54.2032 40.2271 54.1031 40.2267 53.9992C40.2267 53.8105 40.1167 53.6811 39.9219 53.6811C39.7635 53.6811 39.6123 53.7691 39.6123 54.0052H39.3135C39.3135 53.6457 39.5657 53.4121 39.9219 53.4121C40.2781 53.4121 40.5261 53.6392 40.5261 54.0016C40.5261 54.1879 40.4586 54.2963 40.3295 54.4557L39.6721 55.2608H40.5261V55.5286H39.3105Z" fill="#06070E"/>
<path d="M41.641 55.5459C41.3081 55.5459 41.0386 55.3194 41.0386 54.9468V54.0117C41.0386 53.6367 41.3081 53.4097 41.641 53.4097C41.9739 53.4097 42.2458 53.6367 42.2458 54.0117V54.9426C42.2458 55.3194 41.9733 55.5459 41.641 55.5459ZM41.947 54.0219C41.947 53.8188 41.8322 53.6804 41.641 53.6804C41.4497 53.6804 41.3386 53.8188 41.3386 54.0219V54.936C41.3386 55.1391 41.4497 55.2775 41.641 55.2775C41.8322 55.2775 41.947 55.1391 41.947 54.936V54.0219Z" fill="#06070E"/>
<path d="M43.335 55.5286V53.7573L42.9263 54.1167V53.7842L43.335 53.4302H43.6339V55.5268L43.335 55.5286Z" fill="#06070E"/>
<path d="M45.1069 55.5459C44.7746 55.5459 44.5039 55.3194 44.5039 54.9468V54.0117C44.5039 53.6367 44.774 53.4097 45.1069 53.4097C45.4398 53.4097 45.7135 53.6391 45.7135 54.0117V54.9426C45.7135 55.3194 45.4392 55.5459 45.1069 55.5459ZM45.4123 54.0219C45.4123 53.8188 45.2981 53.6804 45.1069 53.6804C44.9157 53.6804 44.8033 53.8188 44.8033 54.0219V54.936C44.8033 55.1391 44.9163 55.2775 45.1069 55.2775C45.2975 55.2775 45.4123 55.1391 45.4123 54.936V54.0219Z" fill="#06070E"/>
<path d="M47.5347 53.7156V55.5283H47.2168V53.4316H48.5047V53.7174L47.5347 53.7156Z" fill="#06070E"/>
<path d="M50.3728 54.5084C50.3728 54.8528 50.3728 55.1158 50.1702 55.3219C50.0223 55.4655 49.8245 55.5459 49.6186 55.5459C49.4126 55.5459 49.2148 55.4655 49.067 55.3219C48.8674 55.1188 48.8638 54.833 48.8638 54.5203V54.382C48.8638 54.0369 48.8913 53.8135 49.067 53.6373C49.2146 53.4932 49.4125 53.4126 49.6186 53.4126C49.8246 53.4126 50.0225 53.4932 50.1702 53.6373C50.3321 53.8015 50.3728 54.0345 50.3728 54.3328V54.5084ZM49.9293 53.8278C49.8885 53.7867 49.8399 53.7541 49.7864 53.7318C49.7329 53.7095 49.6756 53.6981 49.6177 53.6981C49.5598 53.6981 49.5024 53.7095 49.4489 53.7318C49.3954 53.7541 49.3469 53.7867 49.306 53.8278C49.1865 53.9518 49.1865 54.1579 49.1865 54.4269V54.6066C49.1865 54.8229 49.196 55.0193 49.306 55.132C49.3465 55.1737 49.395 55.2068 49.4486 55.2291C49.5023 55.2515 49.5599 55.2626 49.618 55.262C49.676 55.2631 49.7337 55.2522 49.7873 55.2298C49.8409 55.2074 49.8893 55.1741 49.9293 55.132C50.0524 55.002 50.0524 54.8157 50.0524 54.4598C50.0524 54.1399 50.0465 53.9518 49.9299 53.8278H49.9293Z" fill="#06070E"/>
<path d="M52.3891 53.4302V55.2429H52.6359V56.0001H52.3245V55.5286H51.0534V56.0001H50.7456V55.2423H50.9249C51.1072 54.9589 51.1807 54.5468 51.1807 54.049V53.4302H52.3891ZM51.489 54.185C51.489 54.5851 51.4388 54.9476 51.2829 55.2429H52.0717V53.7159H51.4896L51.489 54.185Z" fill="#06070E"/>
<path d="M53.7935 55.1859C53.7117 55.3776 53.5796 55.528 53.3531 55.528H53.1361V55.2423H53.2867C53.3405 55.246 53.3939 55.2316 53.4384 55.2011C53.4828 55.1707 53.5157 55.1261 53.5318 55.0745L53.6047 54.9032L52.9258 53.4295H53.2557L53.7577 54.551L54.2083 53.4277H54.5429L53.7935 55.1859Z" fill="#06070E"/>
<path d="M55.1753 54.551V54.2646H57.6399V54.551H55.1753Z" fill="#06070E"/>
<path d="M33.925 32.1711C33.925 32.1711 35.1573 35.4269 35.4651 36.3213C35.6252 36.7892 35.3509 36.9263 35.1454 36.7568C35.0354 36.6658 34.8549 36.4938 34.8101 36.4783C34.6708 36.4309 35.5027 37.8441 35.5398 37.9226C35.725 38.3167 35.3485 38.4366 35.1346 38.2221C34.9114 38.0768 34.7122 37.8975 34.5442 37.6907C34.5442 37.6907 34.7916 38.1885 34.9756 38.5893C35.2804 39.2483 35.1991 39.6598 34.8489 39.525C35.1603 39.9521 34.7569 40.2589 34.5543 40.0468C34.4079 39.8671 34.237 39.64 34.237 39.64C34.2734 39.8617 33.9304 40.0396 33.72 39.7766C33.689 39.7395 33.3704 39.4489 32.6796 38.4755C32.765 38.6444 32.5505 39.1943 32.0222 38.5402C31.4879 37.8752 26.8701 30.6429 26.8701 30.6429C26.8701 30.6429 31.0439 30.58 33.925 32.1711Z" fill="#121617"/>
<path d="M27.1131 30.9366C27.1131 30.9366 31.5898 36.1795 31.7596 36.4209C32.2932 37.1823 33.0439 36.6977 32.3733 35.7937C32.8717 36.5976 33.6457 36.5311 33.449 36.0273C33.7072 36.4143 33.8907 36.6791 34.1805 36.6354C34.3981 36.6036 34.4566 36.4341 34.364 36.0052C34.2714 35.5762 33.2357 32.0113 33.0044 31.3074C32.7654 30.5886 32.108 26.412 30.9372 26.3503C29.7797 26.291 26.6822 30.1794 27.1131 30.9366Z" fill="white"/>
<path d="M62.0086 33.1577H11.0747V34.9075H62.0086V33.1577Z" fill="#121617"/>
<path d="M43.9837 32.5909C43.9837 32.5909 46.9838 35.8707 47.6065 36.6465C48.1085 37.2701 47.8025 37.4714 47.3973 37.2857C47.8258 37.7188 48.1198 38.0614 48.1868 38.1321C48.5226 38.4867 48.4127 38.9169 48.127 38.7515C47.5539 38.4155 46.8194 37.6187 46.664 37.6732C46.5087 37.7278 47.6609 38.9786 48.0983 39.4824C48.5358 39.9862 48.9027 40.593 48.537 40.6721C48.8495 41.0046 48.635 41.2789 48.3965 41.1052C48.1826 40.9482 48.09 40.871 48.09 40.871C48.1497 41.0273 48.09 41.3592 47.778 41.1244C47.6101 40.998 37.5527 32.6179 37.5527 32.6179C37.5527 32.6179 41.0996 31.8008 43.9837 32.5909Z" fill="#121617"/>
<path d="M36.7774 31.6796C36.7774 31.6796 42.0705 35.6728 42.2892 35.8322C42.9914 36.339 43.1856 36.0329 43.0159 35.6207C43.6099 36.2269 43.6135 35.6567 43.6135 35.6567C43.6135 35.6567 44.1006 36.1838 44.296 36.0466C44.455 35.9352 44.308 35.5776 44.0611 35.2463C43.8143 34.915 42.0149 32.2936 41.6073 31.8377C41.1997 31.3818 39.3029 28.7999 38.5278 29.0102C37.7527 29.2205 36.2497 31.2171 36.7774 31.6796Z" fill="url(#paint0_linear_725_929)"/>
<path d="M29.7695 33.0539C29.6219 32.6831 28.9226 32.5411 28.5013 32.5465C28.3334 32.5465 28.0232 32.5987 27.8965 32.7107C27.8015 32.7939 27.7172 33.024 27.691 33.1072C27.6647 33.1905 27.6121 33.3762 27.5666 33.4948C27.4824 33.7177 27.5069 33.9501 27.5326 34.1885C27.5714 34.5563 27.7208 35.0002 28.1236 35.0745C28.1655 34.9296 28.0429 34.8481 28.0041 34.7109C27.9601 34.5547 27.9345 34.3938 27.9276 34.2317C27.9234 33.992 28.0561 33.7782 28.184 33.7854C28.3119 33.7926 28.2665 33.9333 28.2712 34.0442C28.2703 34.227 28.2865 34.4095 28.3196 34.5893C28.3967 34.914 28.6286 35.132 28.8946 35.1644C28.9304 35.0314 28.8127 34.9248 28.7523 34.8115C28.6495 34.6216 28.6603 34.4162 28.6663 34.2448C28.6722 34.0939 28.7768 33.7518 29.0087 33.8381C29.1193 33.8788 28.9985 34.2257 29.0123 34.3227C29.0918 34.908 29.3948 35.1015 29.6398 35.0595C29.6834 34.9445 29.3009 34.6402 29.4276 34.1101C29.5107 33.7572 29.8824 33.3409 29.7695 33.0539Z" fill="#4F5252"/>
<path d="M33.5701 32.7853C33.4219 32.4145 32.532 32.6325 32.1107 32.6379C31.9428 32.6379 31.6326 32.69 31.5053 32.802C31.4109 32.8853 31.326 33.1147 31.3004 33.198C31.2747 33.2813 31.2215 33.4676 31.176 33.5862C31.0906 33.8084 31.1163 34.0415 31.1414 34.2793C31.1802 34.6471 31.329 35.0916 31.7324 35.1659C31.7755 35.0209 31.6524 34.9388 31.6129 34.8017C31.5681 34.6456 31.5423 34.4847 31.5358 34.3224C31.5316 34.0858 31.6643 33.8689 31.7922 33.8761C31.9201 33.8833 31.8747 34.0241 31.8794 34.1355C31.8786 34.3179 31.8946 34.5 31.9273 34.6795C32.0049 35.0041 32.2368 35.2228 32.5028 35.2551C32.5386 35.1222 32.4215 35.0155 32.3611 34.9017C32.2577 34.7118 32.2685 34.5069 32.2745 34.335C32.2804 34.184 32.3844 33.842 32.6169 33.9283C32.7275 33.969 32.6073 34.3158 32.6169 34.4129C32.6964 34.9982 33 35.1683 33.245 35.1276C33.2886 35.0125 32.9868 34.7418 33.0334 34.2008C33.1028 33.4107 33.6849 33.0722 33.5701 32.7853Z" fill="#4F5252"/>
<path d="M36.0877 33.0539C35.9407 32.6831 35.2415 32.5411 34.8214 32.5465C34.6522 32.5465 34.3164 32.5741 34.2148 32.7107C33.6674 33.4499 33.8257 33.9507 33.8514 34.1885C33.8903 34.5563 34.0391 35.0218 34.4419 35.0967C34.4849 34.9523 34.3624 34.8481 34.3223 34.7109C34.2773 34.5548 34.2511 34.394 34.2441 34.2317C34.2405 33.992 34.3725 33.7782 34.5004 33.7854C34.6283 33.7926 34.5835 33.9333 34.5883 34.0442C34.5879 34.2269 34.6039 34.4094 34.6361 34.5893C34.7138 34.914 34.9457 35.132 35.2116 35.1644C35.2469 35.0314 35.1309 34.9248 35.07 34.8115C34.966 34.6216 34.9767 34.4162 34.9833 34.2448C34.9887 34.0939 35.0933 33.7518 35.3258 33.8381C35.4357 33.8788 35.3162 34.2257 35.3293 34.3227C35.4082 34.908 35.7118 35.0781 35.9556 35.0374C35.9999 34.9224 35.6174 34.639 35.7447 34.1101C35.8295 33.7572 36.2019 33.3409 36.0877 33.0539Z" fill="#4F5252"/>
<path d="M38.6967 33.0343C38.5485 32.6641 37.8499 32.5221 37.4292 32.5275C37.2606 32.5275 36.9511 32.5796 36.8232 32.6916C36.7275 32.7755 36.6439 33.0055 36.6176 33.0882C36.5913 33.1709 36.5387 33.3578 36.4933 33.4764C36.4096 33.6992 36.4335 33.9317 36.4586 34.1701C36.4987 34.5379 36.6469 34.9596 37.0497 35.0345C37.0927 34.8889 36.9696 34.8302 36.9301 34.6925C36.8852 34.5364 36.8591 34.3755 36.8524 34.2132C36.8489 33.9736 36.9809 33.7597 37.1088 33.7669C37.2367 33.7741 37.1913 33.9143 37.1961 34.0263C37.1957 34.209 37.2121 34.3912 37.2451 34.5708C37.3222 34.8961 37.5535 35.1142 37.8194 35.1459C37.8559 35.0135 37.7375 34.9063 37.6784 34.7937C37.5756 34.6032 37.5851 34.3983 37.5917 34.2264C37.5971 34.076 37.6688 33.84 37.9019 33.9269C38.0124 33.9676 37.9246 34.2084 37.9383 34.3055C38.0184 34.8907 38.3214 35.0387 38.5652 34.998C38.6089 34.883 38.2276 34.6212 38.3537 34.0928C38.4349 33.7376 38.8102 33.3218 38.6967 33.0343Z" fill="#4F5252"/>
<path d="M25.9046 31.5933C25.8999 31.5933 24.7202 29.7081 25.5347 26.9615C27.0616 21.827 28.5467 17.2569 27.4471 17.8451C26.323 18.4442 23.2823 20.6511 22.6817 23.7757C22.1958 26.3091 22.8371 29.0432 25.9046 31.5933Z" fill="#868889"/>
<path d="M25.936 31.5637C25.6121 31.088 24.0774 28.7038 24.0428 26.4718C24.0194 24.9226 24.3332 23.948 24.5806 22.4312C24.0266 23.0135 23.1696 22.4911 23.3884 21.8501C23.169 22.1724 22.9539 22.6696 22.7752 23.3855C22.6524 23.8438 22.5749 24.3131 22.5439 24.7866C22.4244 26.9893 22.9772 29.4982 25.5135 31.5182C25.841 31.7781 25.9725 31.6182 25.936 31.5637Z" fill="#121617"/>
<path d="M24.0779 25.3014C24.1538 24.9168 24.1222 24.5921 24.1975 24.141C23.5568 24.8 22.6998 24.4118 22.7034 23.6953C22.6204 24.053 22.5679 24.4172 22.5462 24.7838C22.5403 24.9078 22.5349 25.033 22.5337 25.1588C22.8074 25.7231 23.6375 25.8309 24.0779 25.3014Z" fill="white"/>
<path d="M27.4859 15.1121C28.1301 12.6351 30.5708 12.2846 32.0057 14.2645C32.2907 14.6574 32.6876 15.8771 32.8035 16.1892C33.2714 17.4388 34.3095 17.3993 34.3149 17.4622C34.38 18.2667 35.1515 19.7739 35.1515 19.7739C35.1515 19.7739 37.0388 22.9058 36.5966 26.811C36.1544 30.7162 34.8635 33.8121 32.987 33.4119C31.4547 33.0848 30.676 33.1411 29.7748 33.352C29.2142 33.4838 28.3178 33.4329 27.6233 33.0776C26.9289 32.7224 26.0259 31.8526 25.5986 31.1756C25.1713 30.4987 23.3749 27.9563 24.2115 23.8588C24.8127 20.9157 25.7653 20.1376 26.44 18.5872C27.2205 16.7883 27.1644 16.3498 27.4859 15.1121Z" fill="url(#paint1_linear_725_929)"/>
<path d="M34.9905 15.0429C35.122 12.909 33.6942 11.4288 32.3777 11.1089C29.5874 10.4326 27.776 13.0139 27.4043 15.5131C28.1029 13.4302 30.3882 12.4514 31.688 14.56C32.3454 15.6323 32.395 17.4588 34.3361 17.4852C34.5034 17.4852 34.819 17.3797 34.9935 17.3504C35.3051 17.3239 35.6118 17.255 35.9048 17.1455C35.8941 16.3835 35.3801 15.5898 34.9905 15.0429Z" fill="url(#paint2_radial_725_929)"/>
<path d="M38.5123 18.2431C36.3967 18.0298 35.1058 19.6868 35.1058 19.6868C35.1058 19.6868 34.5339 19.5304 34.3152 19.4999C33.5556 19.3915 33.2329 19.4178 33.2329 19.4178C33.2382 19.8445 33.3894 20.2565 33.6614 20.5848C33.4534 21.2227 33.9865 21.8667 33.9865 21.8667C33.8622 22.0328 33.7515 22.2087 33.6554 22.3927C33.5957 22.5988 34.1234 23.048 35.229 22.5568C36.3346 22.0656 36.9095 21.69 37.9649 21.4384C39.0203 21.1868 40.1474 21.9895 40.953 22.1135C41.0791 22.2741 41.2368 21.9937 41.4376 21.8038C41.6384 21.6139 41.6701 21.5343 41.6701 21.4552C41.6617 20.3302 40.5388 18.4473 38.5123 18.2431Z" fill="url(#paint3_radial_725_929)"/>
<path d="M43.9763 26.1556C42.8504 24.401 41.9444 23.4599 41.9444 23.4599C41.9444 23.4599 42.1237 22.3924 41.6282 21.1152C41.6832 22.1228 38.9551 21.4148 38.9551 21.4148C38.9551 21.4148 40.1503 23.0016 39.484 24.9354C39.4738 24.9761 43.6972 25.7597 43.9763 26.1556Z" fill="#868889"/>
<path d="M33.6387 16.186C33.6387 16.186 34.568 16.9906 35.5941 17.247C35.33 17.317 35.1908 17.3632 34.9911 17.3488C34.6667 17.324 34.3482 17.2478 34.0475 17.1229C33.833 17.0271 33.5342 16.5509 33.6387 16.186Z" fill="#868889"/>
<path d="M34.9908 15.043C34.9908 15.043 35.8729 16.0153 35.9028 17.1457C35.9028 17.1457 34.2922 16.579 33.5356 15.4779C33.8219 15.1934 34.5414 14.898 34.9908 15.043Z" fill="#868889"/>
<path d="M35.5155 16.768C35.1193 16.5555 34.746 16.3028 34.4015 16.0138C34.2222 15.8622 33.9031 15.5765 33.9073 15.5124C33.9115 15.4483 34.2975 15.2584 34.3591 15.2727C34.4206 15.2871 34.6842 15.5914 34.9119 15.8718C35.2722 16.3163 35.5955 16.8105 35.5155 16.768Z" fill="white"/>
<path d="M33.6994 22.3217C33.6994 22.3217 34.2605 23.1004 35.5299 22.3073C36.6701 21.5944 37.7267 21.2889 38.5957 21.3602C40.3359 21.4986 41.0232 23.594 39.571 24.8832C38.1929 26.0939 39.5112 29.0765 41.0889 31.6249C40.5702 32.5624 38.8461 33.5155 36.8297 33.3256C33.1555 32.9794 31.7129 29.8511 31.7129 27.4082C31.7129 25.4367 32.4922 23.857 33.6994 22.3217Z" fill="url(#paint4_linear_725_929)"/>
<path d="M38.0547 27.6263C38.1384 26.3084 38.7121 24.861 40.3687 24.4956C42.1532 24.1033 43.514 25.5302 44.0973 26.3371C44.2311 26.5228 44.7516 27.2788 45.1401 27.8C45.908 28.5955 47.6071 30.4035 47.322 31.0019C47.9794 31.6507 48.62 32.4864 48.3081 32.7991C49.192 33.7102 50.3597 34.0816 50.126 34.9616C50.4637 35.2611 50.9316 35.9249 50.6197 36.2628C51.139 36.6821 51.093 37.5315 50.5599 37.2913C50.4021 37.2194 41.0333 32.3552 39.7209 31.1942C38.6798 30.2687 37.9699 28.9472 38.0547 27.6263Z" fill="#121617"/>
<path d="M33.0703 13.935C33.0703 14.0508 33.036 14.1641 32.9719 14.2604C32.9077 14.3568 32.8164 14.4318 32.7096 14.4762C32.6029 14.5206 32.4854 14.5322 32.372 14.5096C32.2587 14.4871 32.1545 14.4314 32.0728 14.3495C31.991 14.2676 31.9353 14.1633 31.9127 14.0497C31.8901 13.936 31.9015 13.8183 31.9457 13.7112C31.9898 13.6041 32.0647 13.5126 32.1607 13.4481C32.2567 13.3837 32.3697 13.3492 32.4852 13.3491C32.562 13.349 32.6381 13.3641 32.7091 13.3935C32.7801 13.423 32.8446 13.4661 32.8989 13.5205C32.9532 13.5749 32.9964 13.6395 33.0258 13.7107C33.0552 13.7818 33.0703 13.858 33.0703 13.935Z" fill="white"/>
<path d="M32.2974 13.7201C32.4103 13.6776 32.4211 13.9412 32.5502 13.8477C32.6786 13.7986 32.6338 13.6914 32.5765 13.5806C33.0139 13.5961 33.0342 14.1886 32.6392 14.2791C32.3864 14.3366 32.1294 13.9688 32.2974 13.7201Z" fill="#121617"/>
<path d="M33.6616 20.5889C33.7051 21.03 33.9081 21.44 34.2323 21.7414C34.6441 21.9721 34.8377 21.4803 34.8377 21.4803C34.1917 21.2334 33.6616 20.5889 33.6616 20.5889Z" fill="#868889"/>
<path d="M36.9025 21.188C36.7903 21.1604 36.6887 21.1 36.6107 21.0145C36.5327 20.9289 36.4817 20.8221 36.4642 20.7076C36.4468 20.593 36.4636 20.4759 36.5126 20.3709C36.5615 20.2659 36.6405 20.1779 36.7394 20.1179C36.8383 20.0579 36.9527 20.0286 37.0682 20.0338C37.1837 20.039 37.295 20.0784 37.3882 20.147C37.4813 20.2157 37.5521 20.3105 37.5915 20.4194C37.6309 20.5284 37.6372 20.6466 37.6095 20.7591C37.5913 20.8338 37.5585 20.9042 37.513 20.9662C37.4676 21.0282 37.4104 21.0807 37.3448 21.1205C37.2791 21.1603 37.2062 21.1868 37.1304 21.1984C37.0545 21.21 36.9771 21.2065 36.9025 21.188Z" fill="white"/>
<path d="M37.3067 20.5124C37.2194 20.4795 37.0987 20.4357 37.0335 20.5621C36.9684 20.6885 37.0694 20.7916 37.1841 20.8017C37.1197 20.8589 37.0363 20.8896 36.9503 20.8879C36.8643 20.8862 36.7821 20.852 36.72 20.7923C36.658 20.7326 36.6206 20.6517 36.6154 20.5657C36.6101 20.4796 36.6374 20.3947 36.6917 20.3279C36.8471 20.1188 37.2738 20.2147 37.3067 20.5124Z" fill="#121617"/>
<path d="M46.7118 33.9255C46.3276 33.696 44.2891 32.6196 43.3532 32.0564C42.4347 31.5041 41.5819 30.9248 40.9095 30.312C40.9203 30.4103 40.8438 30.599 40.8546 30.6115C41.4773 31.3903 43.1512 32.2841 43.3299 32.3841C43.5086 32.4842 46.3042 34.0016 46.6879 34.2304C46.9867 34.4101 48.8656 35.4231 49.7764 36.0048C49.3342 35.5711 48.4581 34.9666 46.7118 33.9255Z" fill="url(#paint5_linear_725_929)"/>
<path d="M46.808 32.7424C46.4829 32.5279 44.7486 31.4844 43.9556 30.9578C43.2647 30.499 42.7006 30.0802 42.2697 29.6807C42.2391 29.7537 42.1853 29.8146 42.1167 29.8538C42.6623 30.4133 43.7793 31.1495 43.9227 31.2424C44.9775 31.9199 46.4494 32.7682 46.7751 32.9832C47.0285 33.1504 48.4335 33.9848 49.2039 34.5264C48.8333 34.131 48.2877 33.7177 46.808 32.7424Z" fill="url(#paint6_linear_725_929)"/>
<path d="M46.5624 31.3535C46.3108 31.1678 44.9644 30.2639 44.3513 29.8068C43.9961 29.5469 43.6544 29.269 43.3275 28.9741C43.3062 29.0573 43.2652 29.1342 43.208 29.1982C43.5531 29.511 43.9148 29.805 44.2915 30.0788C44.411 30.1596 46.2517 31.3967 46.5027 31.5806C46.6993 31.725 47.6382 32.3174 48.2358 32.7853C47.9525 32.4534 47.7051 32.1994 46.5624 31.3535Z" fill="url(#paint7_linear_725_929)"/>
<path d="M47.0619 30.6974C46.8826 30.4463 46.7822 30.3529 46.0215 29.6951C45.8535 29.5502 44.9499 28.8726 44.5424 28.5174C44.4527 28.4395 44.3679 28.3635 44.286 28.2886C44.2666 28.3601 44.2372 28.4284 44.1987 28.4917C44.3386 28.621 44.4515 28.7181 44.4826 28.7433C44.5603 28.8074 45.7938 29.776 45.9611 29.921L47.0619 30.6974Z" fill="url(#paint8_linear_725_929)"/>
<path d="M39.5108 31.0047C40.0391 31.5887 40.4299 31.5007 40.7843 31.2814C41.0203 31.1365 41.0652 30.8573 41.0526 30.5745C41.3448 30.7501 41.6939 30.7638 41.9526 30.5745C42.1851 30.402 42.2849 30.1091 42.2461 29.8078C42.5281 30.0007 42.8616 30.0342 43.0983 29.8599C43.3128 29.6999 43.3881 29.4082 43.3272 29.1075C43.5997 29.2872 43.9588 29.3034 44.1794 29.1404C44.3742 28.9966 44.4017 28.754 44.3539 28.4749C44.5331 28.6498 44.9425 28.7013 45.1397 28.5348C45.4027 28.3131 45.2593 27.8758 44.9963 27.499C44.4172 27.8585 41.6269 29.628 38.5659 29.8054C38.9305 30.4691 39.5108 31.0047 39.5108 31.0047Z" fill="white"/>
<path d="M44.0964 26.2938C43.5137 25.4863 42.0526 24.0822 40.3458 24.4745C38.7113 24.8501 38.1346 26.3088 38.0455 27.5806C38.018 27.9921 38.3521 28.3054 38.7627 28.2875C38.9152 28.2821 39.0625 28.2309 39.1855 28.1404C39.3085 28.0499 39.4015 27.9243 39.4523 27.7801C39.4966 27.9098 39.5809 28.022 39.6931 28.1003C39.8053 28.1786 39.9395 28.219 40.0762 28.2156C40.3876 28.2036 40.5448 28.0221 40.6344 27.7873C40.7707 28.0491 40.9637 28.1976 41.232 28.194C41.5655 28.1904 41.6504 27.9957 41.7221 27.7507C41.7651 27.8658 41.8423 27.9648 41.9434 28.0343C42.0444 28.1038 42.1643 28.1406 42.2868 28.1395C42.5856 28.1287 42.7237 27.9436 42.7494 27.7202C42.8773 27.9754 43.0422 28.1497 43.261 28.1395C43.3503 28.1333 43.4351 28.0979 43.5026 28.0389C43.57 27.9798 43.6163 27.9003 43.6345 27.8124C43.6767 27.9042 43.7425 27.9832 43.8252 28.0411C43.9078 28.0991 44.0043 28.1341 44.1048 28.1425C44.2871 28.1425 44.4789 27.9903 44.4825 27.8022C44.81 28.2156 45.2391 27.9448 45.0574 27.6453C45.0622 27.6447 44.1544 26.3729 44.0964 26.2938Z" fill="url(#paint9_radial_725_929)"/>
<path d="M31.2454 16.9395C30.9077 18.3329 29.8709 19.2758 28.9338 19.0487C27.9967 18.8217 27.5091 17.5038 27.8479 16.1098C28.1868 14.7158 29.2225 13.7735 30.1595 14.0005C31.0966 14.2276 31.5836 15.5455 31.2454 16.9395Z" fill="url(#paint10_linear_725_929)"/>
<path d="M38.7173 24.905C37.8322 25.5808 36.692 25.5718 36.1697 24.8853C35.6473 24.1988 35.9414 23.0935 36.827 22.4172C37.7127 21.7409 38.853 21.7504 39.3753 22.4375C39.8976 23.1247 39.603 24.2287 38.7173 24.905Z" fill="url(#paint11_linear_725_929)"/>
<path d="M34.9336 20.6207C34.8858 20.0977 35.1224 19.9168 34.8553 19.6754C34.7846 19.6206 34.7031 19.5816 34.6162 19.5609C34.5003 19.5328 34.3909 19.5094 34.3174 19.501C33.5776 19.3956 33.2531 19.4184 33.2363 19.419C33.3045 19.6412 33.4007 20.054 34.0252 20.5823C34.8021 21.2383 34.964 20.9531 34.9336 20.6207Z" fill="#868889"/>
<path d="M33.6272 19.7587C33.8258 19.8632 34.0189 19.9779 34.2057 20.1025C34.5045 20.2978 34.7692 20.3553 34.7525 20.538C34.7334 20.7585 34.621 20.8801 34.1029 20.4458C33.8719 20.2585 33.6815 20.0259 33.5435 19.7622C33.5166 19.7071 33.5417 19.7143 33.6272 19.7587Z" fill="white"/>
</g>
<defs>
<linearGradient id="paint0_linear_725_929" x1="39.6967" y1="31.7958" x2="42.5585" y2="34.0278" gradientUnits="userSpaceOnUse">
<stop offset="0.23" stop-color="white"/>
<stop offset="0.39" stop-color="#EBECEB"/>
<stop offset="0.71" stop-color="#BBBCBB"/>
</linearGradient>
<linearGradient id="paint1_linear_725_929" x1="31.1224" y1="32.3324" x2="28.8755" y2="13.7733" gradientUnits="userSpaceOnUse">
<stop offset="0.06" stop-color="#FCE6E4"/>
<stop offset="0.1" stop-color="#F9C8C2"/>
<stop offset="0.19" stop-color="#F59689"/>
<stop offset="0.23" stop-color="#F38273"/>
<stop offset="0.32" stop-color="#F1615C"/>
<stop offset="0.41" stop-color="#EF4349"/>
<stop offset="0.51" stop-color="#ED2E3A"/>
<stop offset="0.6" stop-color="#EC2132"/>
<stop offset="0.69" stop-color="#EC1D2F"/>
</linearGradient>
<radialGradient id="paint2_radial_725_929" cx="0" cy="0" r="1" gradientTransform="matrix(-1.87469 -2.39746 1.21979 -0.95838 32.0703 13.0494)" gradientUnits="userSpaceOnUse">
<stop offset="0.1" stop-color="#424546"/>
<stop offset="0.37" stop-color="#353839"/>
<stop offset="0.42" stop-color="#303334"/>
<stop offset="0.79" stop-color="#121617"/>
</radialGradient>
<radialGradient id="paint3_radial_725_929" cx="0" cy="0" r="1" gradientTransform="matrix(2.97555 -0.76873 0.36811 1.47596 37.9254 20.1913)" gradientUnits="userSpaceOnUse">
<stop offset="0.1" stop-color="#424546"/>
<stop offset="0.37" stop-color="#353839"/>
<stop offset="0.42" stop-color="#303334"/>
<stop offset="0.79" stop-color="#121617"/>
</radialGradient>
<linearGradient id="paint4_linear_725_929" x1="39.8196" y1="32.8679" x2="34.4332" y2="23.0202" gradientUnits="userSpaceOnUse">
<stop offset="0.1" stop-color="#FCE6E4"/>
<stop offset="0.19" stop-color="#F9C5BF"/>
<stop offset="0.36" stop-color="#F38273"/>
<stop offset="0.39" stop-color="#F2776B"/>
<stop offset="0.55" stop-color="#EF464B"/>
<stop offset="0.66" stop-color="#ED2837"/>
<stop offset="0.73" stop-color="#EC1D2F"/>
</linearGradient>
<linearGradient id="paint5_linear_725_929" x1="40.5378" y1="30.4174" x2="49.8986" y2="35.9426" gradientUnits="userSpaceOnUse">
<stop offset="0.1" stop-color="#424546"/>
<stop offset="0.36" stop-color="#3F4243"/>
<stop offset="0.57" stop-color="#353839"/>
<stop offset="0.77" stop-color="#242728"/>
<stop offset="0.91" stop-color="#121617"/>
</linearGradient>
<linearGradient id="paint6_linear_725_929" x1="41.9559" y1="29.698" x2="49.1601" y2="34.4979" gradientUnits="userSpaceOnUse">
<stop offset="0.1" stop-color="#424546"/>
<stop offset="0.36" stop-color="#3F4243"/>
<stop offset="0.57" stop-color="#353839"/>
<stop offset="0.77" stop-color="#242728"/>
<stop offset="0.91" stop-color="#121617"/>
</linearGradient>
<linearGradient id="paint7_linear_725_929" x1="43.3018" y1="29.0065" x2="48.1558" y2="32.88" gradientUnits="userSpaceOnUse">
<stop offset="0.1" stop-color="#424546"/>
<stop offset="0.39" stop-color="#343738"/>
<stop offset="0.91" stop-color="#121617"/>
</linearGradient>
<linearGradient id="paint8_linear_725_929" x1="44.7181" y1="28.784" x2="47.7465" y2="31.2013" gradientUnits="userSpaceOnUse">
<stop offset="0.1" stop-color="#424546"/>
<stop offset="0.38" stop-color="#303435"/>
<stop offset="0.91" stop-color="#121617"/>
</linearGradient>
<radialGradient id="paint9_radial_725_929" cx="0" cy="0" r="1" gradientTransform="matrix(2.79055 -0.242758 0.16226 1.87414 40.9594 26.2996)" gradientUnits="userSpaceOnUse">
<stop offset="0.11" stop-color="#D9DAD9"/>
<stop offset="0.35" stop-color="#BDBEBE"/>
<stop offset="0.56" stop-color="#ABADAE"/>
<stop offset="0.71" stop-color="#A5A7A8"/>
</radialGradient>
<linearGradient id="paint10_linear_725_929" x1="29.8085" y1="15.0564" x2="28.9072" y2="20.2539" gradientUnits="userSpaceOnUse">
<stop offset="0.06" stop-color="#F05B4F"/>
<stop offset="0.12" stop-color="#EF524B"/>
<stop offset="0.34" stop-color="#EE353B"/>
<stop offset="0.54" stop-color="#EC2332"/>
<stop offset="0.67" stop-color="#EC1D2F"/>
</linearGradient>
<linearGradient id="paint11_linear_725_929" x1="38.606" y1="22.8612" x2="35.5136" y2="25.5066" gradientUnits="userSpaceOnUse">
<stop offset="0.06" stop-color="#F05B4F"/>
<stop offset="0.12" stop-color="#EF524B"/>
<stop offset="0.35" stop-color="#EE353B"/>
<stop offset="0.54" stop-color="#EC2332"/>
<stop offset="0.69" stop-color="#EC1D2F"/>
</linearGradient>
<clipPath id="clip0_725_929">
<rect width="59" height="45" fill="white" transform="translate(7 11)"/>
</clipPath>
</defs>
</svg>
