<svg width="78" height="60" viewBox="0 0 78 60" fill="none" xmlns="http://www.w3.org/2000/svg">
<path d="M59.714 47.6557C42.9693 54.7877 35.0804 59.5063 35.0804 59.5063C35.0804 59.5063 27.8243 33.2588 34.462 17.3238C35.1187 15.3696 47.8185 -2.62247 67.1919 9.77396C86.5653 22.1704 76.4587 40.5238 59.714 47.6557Z" fill="url(#paint0_linear_6562_9097)" fill-opacity="0.4"/>
<path d="M35.109 58.6621C35.109 58.6621 25.5516 48.7719 20.9966 43.9659C19.2003 42.0703 17.3367 40.1715 15.8949 37.9957C10.6671 30.1052 10.7405 19.678 15.8825 11.6157C21.132 3.38482 30.3432 -0.473954 39.9916 1.51504C48.5961 3.28924 55.7825 10.8854 57.5127 20.1098C59.0393 28.2516 56.9587 35.4203 51.5573 41.3937C46.5403 46.9429 35.109 58.6621 35.109 58.6621Z" fill="#F6F6F6" stroke="black" stroke-width="1.29577" stroke-miterlimit="10"/>
<g clip-path="url(#clip0_6562_9097)">
<path d="M19.2274 25.8812C19.2432 25.9141 19.2527 25.9497 19.2557 25.986L19.5027 26.616L19.8938 27.6747L20.8548 30.0787L21.4921 31.6145L21.7496 32.2355L21.8251 32.3977H20.2078L19.5983 30.5177C19.5641 30.5105 19.5292 30.5072 19.4942 30.508H19.1507C19.0346 30.4987 18.7895 30.4987 18.4189 30.4987H18.285C17.7905 30.4987 17.6949 30.508 17.5331 30.508C17.4886 30.5067 17.4441 30.51 17.4002 30.5177L16.7242 32.3966H15.8867L17.5617 28.4475C17.7522 27.9895 17.9899 27.3794 18.266 26.616C18.3899 26.2822 18.4666 26.0435 18.5134 25.8809L19.2274 25.8812ZM18.5134 27.7609L17.6573 29.8975C17.7014 29.9046 17.746 29.9076 17.7905 29.9064C17.8761 29.9169 18.0852 29.9169 18.4368 29.9169C18.8468 29.9169 19.0841 29.9169 19.1705 29.9064C19.2212 29.9076 19.272 29.9046 19.3223 29.8975L18.5134 27.7609Z" fill="#06070E"/>
<path d="M25.8772 26.3295L25.5624 27.3692H25.4485C25.258 26.7968 24.7725 26.4723 24.2014 26.4723C23.6593 26.4723 23.288 26.7968 23.288 27.2835C23.2877 27.4589 23.3444 27.6298 23.4495 27.7702C23.5373 27.8939 23.647 28.0005 23.7732 28.0845C23.8777 28.1517 24.1634 28.3038 24.6292 28.5429C24.8796 28.6661 25.1214 28.8061 25.3529 28.9621C25.895 29.344 26.171 29.8493 26.171 30.4792C26.1801 30.9726 25.9999 31.4506 25.6677 31.8147C25.2395 32.2719 24.6114 32.5013 23.7925 32.5013C23.1641 32.5013 22.6224 32.3585 22.1562 32.072L22.4606 30.7936H22.5942C22.7552 31.5473 23.2137 31.9191 23.9551 31.9191C24.5921 31.9191 24.9916 31.5659 24.9916 31.0222C24.9916 30.7649 24.9161 30.5564 24.7547 30.3927C24.5921 30.2203 24.2881 30.0201 23.8409 29.8012C23.5838 29.6677 23.3271 29.5244 23.089 29.3816C22.4796 29.0093 22.1747 28.4942 22.1744 27.8365C22.1744 27.2735 22.3742 26.8061 22.7738 26.4343C23.1827 26.062 23.6876 25.8711 24.2963 25.8711C24.8484 25.8711 25.3715 26.024 25.8772 26.3295Z" fill="#06070E"/>
<path d="M32.3612 26.3693L32.1145 27.5139H31.9713C31.7335 26.8172 31.1725 26.4659 30.287 26.4659C29.64 26.4659 29.1254 26.7136 28.746 27.2201C28.3739 27.7149 28.1842 28.3735 28.1842 29.2037C28.1842 30.0149 28.3549 30.6821 28.6976 31.1975C29.0402 31.6822 29.659 31.9683 30.3726 31.9683C31.0862 31.9683 31.6855 31.7393 32.1715 31.2914L32.2942 31.3197L32.0754 32.1119L31.9616 32.1588C31.5334 32.3025 31.2004 32.4069 30.9526 32.455C30.6671 32.5083 30.3772 32.5343 30.0868 32.5326C28.0115 32.5326 26.6408 31.1967 26.6408 29.2608C26.6211 27.2763 28.0874 25.8737 30.2475 25.9028C30.9433 25.9012 31.6476 26.0538 32.3612 26.3693Z" fill="#06070E"/>
<path d="M35.761 25.8809C35.7767 25.9138 35.7863 25.9493 35.7893 25.9857L36.0367 26.6156L36.4266 27.6744L37.3884 30.0783L38.0261 31.6141L38.2828 32.2351L38.3602 32.3974H36.741L36.1319 30.5181C36.0976 30.5108 36.0625 30.5075 36.0274 30.5084H35.6851C35.5689 30.4991 35.3235 30.4991 34.9522 30.4991H34.8205C34.3261 30.4991 34.2304 30.5084 34.069 30.5084C34.0244 30.5071 33.9797 30.5103 33.9358 30.5181L33.2605 32.3974H32.4199L34.0953 28.4479C34.285 27.9899 34.5235 27.3798 34.7992 26.6163C34.9231 26.2826 34.999 26.0439 35.047 25.8812L35.761 25.8809ZM35.0478 27.7605L34.1909 29.8975C34.2351 29.9046 34.2798 29.9076 34.3245 29.9064C34.4093 29.9169 34.6192 29.9169 34.9711 29.9169C35.38 29.9169 35.6189 29.9169 35.7041 29.9064C35.7551 29.9076 35.8061 29.9046 35.8566 29.8975L35.0478 27.7605Z" fill="#06070E"/>
<path d="M44.6264 26.0352C44.6164 26.1403 44.6074 26.197 44.6074 26.2063C44.5982 26.3503 44.5788 26.6169 44.5687 27.0082C44.5501 27.4561 44.5401 27.7894 44.5401 28.0285V30.5757C44.5401 30.6534 44.5498 30.9282 44.5687 31.3962C44.5788 31.7494 44.5877 32.0354 44.6074 32.2547C44.6074 32.2935 44.6164 32.3211 44.6164 32.398H43.7789C43.7429 32.3601 43.7111 32.3185 43.684 32.2738C43.5791 32.1496 43.3425 31.8736 43.1032 31.614C42.7133 31.1661 42.4942 30.908 42.4376 30.8606L39.7536 27.9416L39.7439 31.1847C39.7439 31.2988 39.7536 31.4998 39.773 31.7762C39.783 31.9765 39.7912 32.1771 39.8206 32.3972H38.992C39.0004 32.3435 39.0035 32.2892 39.0013 32.2349C39.0106 32.1111 39.03 31.8627 39.04 31.4913C39.0591 30.8703 39.0688 30.4218 39.0691 30.1457V28.5816C39.0691 27.9043 39.059 27.4172 39.0501 27.1227C39.04 26.7027 39.0114 26.3398 38.9727 26.0359H40.0096L43.8648 30.2994V28.5443L43.8455 27.3994C43.8362 26.8747 43.8265 26.4737 43.8067 26.1877C43.8033 26.1365 43.797 26.0856 43.7878 26.0352H44.6264Z" fill="#06070E"/>
<path d="M47.585 26.0355C47.5184 26.7031 47.4897 27.4568 47.4897 28.3056V30.091C47.4897 30.3293 47.4994 30.8637 47.5284 31.7129C47.547 32.0276 47.566 32.2564 47.5853 32.3995H45.977L45.9866 32.228C46.0253 31.789 46.0435 31.4455 46.0528 31.2072C46.0621 30.9689 46.0706 30.5684 46.0706 30.004V28.2575C46.0706 27.9233 46.0621 27.5135 46.0432 27.0082C46.0242 26.5591 46.0044 26.2354 45.9766 26.0352L47.585 26.0355Z" fill="#06070E"/>
<path d="M51.5137 25.8809C51.5298 25.9137 51.5397 25.9492 51.5428 25.9857L51.7894 26.6156L52.1801 27.6744L53.1411 30.0783L53.7784 31.6141L54.0351 32.2351L54.1126 32.3974H52.4937L51.8851 30.5181C51.8504 30.5108 51.8151 30.5076 51.7797 30.5084H51.4375C51.3236 30.4991 51.0762 30.4991 50.7045 30.4991H50.5721C50.0769 30.4991 49.9812 30.5084 49.8198 30.5084C49.7753 30.5071 49.7308 30.5104 49.687 30.5181L49.0113 32.3974H48.1738L49.848 28.4479C50.0382 27.9899 50.2763 27.3798 50.5527 26.6163C50.6766 26.2826 50.7529 26.0439 50.7998 25.8812L51.5137 25.8809ZM50.7998 27.7605L49.9437 29.8975C49.9876 29.9046 50.032 29.9076 50.0765 29.9064C50.1621 29.9169 50.3719 29.9169 50.7235 29.9169C51.1335 29.9169 51.3709 29.9169 51.456 29.9064C51.5072 29.9076 51.5583 29.9047 51.609 29.8975L50.7998 27.7605Z" fill="#06070E"/>
<path d="M21.207 35.6933V35.5078H22.8038V35.6933H21.207Z" fill="#06070E"/>
<path d="M24.3898 35.6671C24.3898 35.8903 24.3898 36.0607 24.2585 36.1942C24.1628 36.2874 24.0346 36.3395 23.9011 36.3395C23.7677 36.3395 23.6395 36.2874 23.5438 36.1942C23.414 36.0626 23.4121 35.8775 23.4121 35.6749V35.5852C23.4121 35.3617 23.4295 35.2169 23.5438 35.1028C23.6394 35.0093 23.7676 34.957 23.9011 34.957C24.0347 34.957 24.1629 35.0093 24.2585 35.1028C24.3631 35.2091 24.3898 35.3601 24.3898 35.5534V35.6671ZM24.1021 35.2262C24.0756 35.1996 24.0442 35.1784 24.0096 35.164C23.975 35.1496 23.9378 35.1422 23.9004 35.1422C23.8629 35.1422 23.8257 35.1496 23.7911 35.164C23.7565 35.1784 23.7251 35.1996 23.6986 35.2262C23.6212 35.3066 23.6212 35.4401 23.6212 35.6143V35.7308C23.6212 35.8709 23.6262 35.9982 23.6986 36.0711C23.7247 36.0981 23.7561 36.1195 23.7907 36.134C23.8253 36.1485 23.8625 36.1557 23.9 36.1554C23.9376 36.1562 23.9751 36.1491 24.0099 36.1346C24.0447 36.1201 24.0761 36.0985 24.1021 36.0711C24.1822 35.9869 24.1822 35.8662 24.1822 35.6357C24.1822 35.4284 24.178 35.3066 24.1021 35.2262Z" fill="#06070E"/>
<path d="M25.2394 36.3396C25.1734 36.3406 25.1078 36.3282 25.0466 36.3033C24.9854 36.2783 24.9298 36.2413 24.8832 36.1944C24.75 36.0609 24.752 35.9099 24.752 35.6479C24.752 35.386 24.7496 35.2358 24.8832 35.1026C24.9297 35.0556 24.9853 35.0184 25.0465 34.9934C25.1077 34.9684 25.1733 34.956 25.2394 34.9571C25.4892 34.9571 25.6762 35.1042 25.7238 35.3755H25.5139C25.4814 35.2381 25.3904 35.1426 25.2394 35.1426C25.2023 35.1418 25.1654 35.1487 25.1311 35.1628C25.0967 35.1769 25.0656 35.1979 25.0396 35.2245C24.9727 35.2971 24.9576 35.3755 24.9576 35.6483C24.9576 35.9212 24.9727 36.0004 25.0396 36.0725C25.0655 36.0993 25.0966 36.1205 25.131 36.1347C25.1653 36.1489 25.2023 36.1559 25.2394 36.1552C25.3904 36.1552 25.4834 36.059 25.5159 35.9223H25.7238C25.6781 36.1929 25.4853 36.3396 25.2394 36.3396Z" fill="#06070E"/>
<path d="M26.8601 36.3279V35.7333H26.3107V36.3272H26.1055V34.9688H26.3107V35.5509H26.8597V34.9688H27.0676V36.3272L26.8601 36.3279Z" fill="#06070E"/>
<path d="M28.4562 35.6671C28.4562 35.8902 28.4562 36.0606 28.3249 36.1941C28.2292 36.2873 28.1011 36.3394 27.9677 36.3394C27.8344 36.3394 27.7062 36.2873 27.6105 36.1941C27.4805 36.0626 27.4785 35.8774 27.4785 35.6748V35.5852C27.4785 35.3616 27.4959 35.2169 27.6105 35.1028C27.7061 35.0093 27.8343 34.957 27.9677 34.957C28.1012 34.957 28.2294 35.0093 28.3249 35.1028C28.4298 35.2091 28.4562 35.3601 28.4562 35.5534V35.6671ZM28.1693 35.2262C28.1431 35.199 28.1117 35.1775 28.0769 35.163C28.0422 35.1485 28.0048 35.1414 27.9672 35.142C27.9295 35.1415 27.8921 35.1488 27.8573 35.1632C27.8225 35.1777 27.791 35.1991 27.7647 35.2262C27.6872 35.3065 27.6872 35.44 27.6872 35.6143V35.7307C27.6872 35.8708 27.6926 35.9981 27.7647 36.0711C27.791 36.0981 27.8225 36.1195 27.8573 36.134C27.8921 36.1485 27.9295 36.1557 27.9672 36.1553C28.0048 36.1561 28.0423 36.1491 28.0771 36.1346C28.1119 36.1201 28.1433 36.0985 28.1693 36.0711C28.249 35.9869 28.249 35.8662 28.249 35.6356C28.249 35.4284 28.2452 35.3065 28.1693 35.2262Z" fill="#06070E"/>
<path d="M29.4174 36.3272H28.8691V34.9688H29.3965C29.6439 34.9688 29.8058 35.1139 29.8058 35.3355C29.8086 35.3975 29.7926 35.4589 29.76 35.5117C29.7274 35.5645 29.6796 35.6062 29.623 35.6313C29.7562 35.6945 29.8267 35.7916 29.8267 35.9464C29.8263 36.1801 29.6714 36.3272 29.4174 36.3272ZM29.3787 35.1527H29.074V35.5408H29.3787C29.5157 35.5408 29.5998 35.4686 29.5998 35.3468C29.5998 35.2249 29.5165 35.1527 29.3795 35.1527H29.3787ZM29.3957 35.7279H29.074V36.142H29.3957C29.5336 36.142 29.6187 36.0617 29.6187 35.934C29.6187 35.8063 29.5343 35.7279 29.3965 35.7279H29.3957Z" fill="#06070E"/>
<path d="M35.5174 36.3272H34.9688V34.9688H35.4961C35.7439 34.9688 35.9061 35.1139 35.9061 35.3355C35.9089 35.3976 35.8929 35.459 35.8602 35.5118C35.8275 35.5646 35.7797 35.6062 35.723 35.6313C35.8566 35.6945 35.927 35.7916 35.927 35.9464C35.927 36.1801 35.7702 36.3272 35.5174 36.3272ZM35.4787 35.1527H35.1736V35.5408H35.4787C35.6154 35.5408 35.6994 35.4686 35.6994 35.3468C35.6994 35.2249 35.6161 35.1527 35.4787 35.1527ZM35.4953 35.7279H35.1736V36.142H35.4953C35.6332 36.142 35.718 36.0617 35.718 35.934C35.718 35.8063 35.6336 35.7279 35.4961 35.7279H35.4953Z" fill="#06070E"/>
<path d="M31.0194 36.3272L30.9237 36.0555H30.389L30.293 36.3272H30.0762L30.5733 34.9688H30.739L31.2343 36.3272H31.0194ZM30.6608 35.275L30.4479 35.8785H30.8703L30.6608 35.275Z" fill="#06070E"/>
<path d="M32.2914 36.3279V35.7333H31.7423V36.3272H31.5371V34.9688H31.7423V35.5509H32.2914V34.9688H32.497V36.3272L32.2914 36.3279Z" fill="#06070E"/>
<path d="M33.8874 35.667C33.8874 35.8901 33.8874 36.0605 33.7562 36.194C33.6604 36.2871 33.5322 36.3392 33.3988 36.3392C33.2654 36.3392 33.1372 36.2871 33.0414 36.194C32.9121 36.0625 32.9102 35.8773 32.9102 35.6747V35.5851C32.9102 35.3615 32.9276 35.2167 33.0414 35.1026C33.1371 35.0093 33.2653 34.957 33.3988 34.957C33.5323 34.957 33.6605 35.0093 33.7562 35.1026C33.8611 35.209 33.8874 35.36 33.8874 35.5532V35.667ZM33.6001 35.2261C33.574 35.1989 33.5426 35.1774 33.5078 35.1629C33.473 35.1484 33.4357 35.1412 33.398 35.1418C33.3604 35.1415 33.3231 35.1487 33.2884 35.1632C33.2536 35.1777 33.2222 35.1991 33.1959 35.2261C33.1185 35.3064 33.1185 35.4399 33.1185 35.6142V35.7306C33.1185 35.8707 33.1235 35.998 33.1959 36.071C33.2222 36.098 33.2537 36.1193 33.2884 36.1338C33.3231 36.1483 33.3604 36.1555 33.398 36.1552C33.4357 36.156 33.4731 36.149 33.5079 36.1345C33.5427 36.12 33.5741 36.0983 33.6001 36.071C33.6803 35.9868 33.6803 35.8661 33.6803 35.6355C33.6803 35.4283 33.676 35.3064 33.6001 35.2261Z" fill="#06070E"/>
<path d="M36.8203 36.3283V36.1548L37.3426 35.5186C37.3886 35.4696 37.4141 35.4047 37.4139 35.3374C37.4139 35.2151 37.3426 35.1313 37.2164 35.1313C37.1138 35.1313 37.0158 35.1884 37.0158 35.3413H36.8223C36.8223 35.1084 36.9856 34.957 37.2164 34.957C37.4472 34.957 37.6079 35.1041 37.6079 35.3389C37.6079 35.4596 37.5641 35.5299 37.4805 35.6331L37.0546 36.1548H37.6079V36.3283H36.8203Z" fill="#06070E"/>
<path d="M38.3297 36.3391C38.1141 36.3391 37.9395 36.1924 37.9395 35.951V35.3451C37.9395 35.1022 38.1141 34.9551 38.3297 34.9551C38.5454 34.9551 38.7216 35.1022 38.7216 35.3451V35.9483C38.7216 36.1924 38.545 36.3391 38.3297 36.3391ZM38.528 35.3517C38.528 35.2202 38.4536 35.1305 38.3297 35.1305C38.2058 35.1305 38.1338 35.2202 38.1338 35.3517V35.944C38.1338 36.0756 38.2058 36.1652 38.3297 36.1652C38.4536 36.1652 38.528 36.0756 38.528 35.944V35.3517Z" fill="#06070E"/>
<path d="M39.4289 36.3283V35.1807L39.1641 35.4135V35.1981L39.4289 34.9688H39.6225V36.3272L39.4289 36.3283Z" fill="#06070E"/>
<path d="M40.5762 36.3391C40.3609 36.3391 40.1855 36.1924 40.1855 35.951V35.3451C40.1855 35.1022 40.3606 34.9551 40.5762 34.9551C40.7919 34.9551 40.9692 35.1037 40.9692 35.3451V35.9483C40.9692 36.1924 40.7915 36.3391 40.5762 36.3391ZM40.7741 35.3517C40.7741 35.2202 40.7001 35.1305 40.5762 35.1305C40.4523 35.1305 40.3795 35.2202 40.3795 35.3517V35.944C40.3795 36.0756 40.4527 36.1652 40.5762 36.1652C40.6997 36.1652 40.7741 36.0756 40.7741 35.944V35.3517Z" fill="#06070E"/>
<path d="M42.1493 35.1527V36.3272H41.9434V34.9688H42.7778V35.1539L42.1493 35.1527Z" fill="#06070E"/>
<path d="M43.9874 35.667C43.9874 35.8901 43.9874 36.0605 43.8562 36.194C43.7604 36.2871 43.6322 36.3392 43.4988 36.3392C43.3654 36.3392 43.2372 36.2871 43.1414 36.194C43.0121 36.0625 43.0098 35.8773 43.0098 35.6747V35.5851C43.0098 35.3615 43.0276 35.2167 43.1414 35.1026C43.2371 35.0093 43.3653 34.957 43.4988 34.957C43.6323 34.957 43.7605 35.0093 43.8562 35.1026C43.9611 35.209 43.9874 35.36 43.9874 35.5532V35.667ZM43.7001 35.2261C43.6737 35.1994 43.6422 35.1783 43.6075 35.1638C43.5729 35.1494 43.5357 35.142 43.4982 35.142C43.4607 35.142 43.4235 35.1494 43.3889 35.1638C43.3542 35.1783 43.3228 35.1994 43.2963 35.2261C43.2188 35.3064 43.2188 35.4399 43.2188 35.6142V35.7306C43.2188 35.8707 43.225 35.998 43.2963 36.071C43.3225 36.098 43.354 36.1195 43.3887 36.1339C43.4234 36.1484 43.4608 36.1557 43.4984 36.1552C43.536 36.156 43.5734 36.1489 43.6081 36.1344C43.6428 36.1199 43.6742 36.0983 43.7001 36.071C43.7799 35.9868 43.7799 35.8661 43.7799 35.6355C43.7799 35.4283 43.776 35.3064 43.7005 35.2261H43.7001Z" fill="#06070E"/>
<path d="M45.2933 34.9688V36.1432H45.4532V36.6338H45.2515V36.3283H44.4279V36.6338H44.2285V36.1428H44.3447C44.4628 35.9592 44.5104 35.6922 44.5104 35.3697V34.9688H45.2933ZM44.7102 35.4578C44.7102 35.717 44.6777 35.9519 44.5766 36.1432H45.0877V35.1539H44.7106L44.7102 35.4578Z" fill="#06070E"/>
<path d="M46.2048 36.1059C46.1517 36.2301 46.0662 36.3275 45.9194 36.3275H45.7789V36.1424H45.8764C45.9112 36.1449 45.9459 36.1355 45.9747 36.1157C46.0035 36.096 46.0248 36.0671 46.0352 36.0337L46.0824 35.9227L45.6426 34.968H45.8563L46.1815 35.6945L46.4735 34.9668H46.6903L46.2048 36.1059Z" fill="#06070E"/>
<path d="M47.0996 35.6933V35.5078H48.6964V35.6933H47.0996Z" fill="#06070E"/>
<path d="M33.3306 21.1954C33.3306 21.1954 34.1289 23.3048 34.3283 23.8843C34.4321 24.1874 34.2544 24.2763 34.1212 24.1664C34.05 24.1074 33.933 23.996 33.904 23.9859C33.8138 23.9553 34.3527 24.8709 34.3767 24.9217C34.4968 25.1771 34.2528 25.2547 34.1142 25.1158C33.9696 25.0216 33.8406 24.9055 33.7317 24.7715C33.7317 24.7715 33.892 25.094 34.0112 25.3537C34.2087 25.7806 34.156 26.0472 33.9292 25.9599C34.1309 26.2366 33.8695 26.4354 33.7383 26.298C33.6434 26.1815 33.5327 26.0344 33.5327 26.0344C33.5563 26.178 33.334 26.2933 33.1977 26.1229C33.1776 26.0989 32.9712 25.9106 32.5236 25.2799C32.579 25.3894 32.44 25.7457 32.0977 25.3218C31.7516 24.891 28.7598 20.2053 28.7598 20.2053C28.7598 20.2053 31.4639 20.1645 33.3306 21.1954Z" fill="#121617"/>
<path d="M28.9171 20.3957C28.9171 20.3957 31.8175 23.7925 31.9275 23.9489C32.2732 24.4422 32.7595 24.1282 32.3251 23.5425C32.648 24.0634 33.1494 24.0203 33.0221 23.6939C33.1893 23.9446 33.3082 24.1162 33.496 24.0878C33.6369 24.0673 33.6749 23.9574 33.6149 23.6795C33.5548 23.4017 32.8838 21.092 32.734 20.6359C32.5791 20.1702 32.1532 17.4642 31.3947 17.4243C30.6447 17.3858 28.6379 19.9051 28.9171 20.3957Z" fill="white"/>
<path d="M51.5249 21.834H18.5254V22.9677H51.5249V21.834Z" fill="#121617"/>
<path d="M39.8482 21.4672C39.8482 21.4672 41.7919 23.5922 42.1954 24.0948C42.5206 24.4988 42.3224 24.6292 42.0598 24.5089C42.3375 24.7895 42.5279 25.0115 42.5713 25.0573C42.7889 25.2871 42.7177 25.5657 42.5326 25.4586C42.1613 25.2409 41.6854 24.7247 41.5848 24.76C41.4841 24.7953 42.2306 25.6057 42.514 25.9321C42.7974 26.2585 43.0352 26.6517 42.7982 26.7029C43.0007 26.9183 42.8617 27.0961 42.7072 26.9835C42.5686 26.8818 42.5086 26.8318 42.5086 26.8318C42.5473 26.9331 42.5086 27.1481 42.3065 26.996C42.1977 26.9141 35.6816 21.4847 35.6816 21.4847C35.6816 21.4847 37.9796 20.9553 39.8482 21.4672Z" fill="#121617"/>
<path d="M35.1786 20.8779C35.1786 20.8779 38.608 23.4651 38.7497 23.5684C39.2046 23.8967 39.3305 23.6984 39.2205 23.4314C39.6054 23.8241 39.6077 23.4547 39.6077 23.4547C39.6077 23.4547 39.9232 23.7962 40.0499 23.7073C40.1529 23.6351 40.0576 23.4034 39.8977 23.1888C39.7378 22.9742 38.572 21.2758 38.3079 20.9804C38.0438 20.6851 36.8149 19.0123 36.3127 19.1485C35.8105 19.2847 34.8367 20.5783 35.1786 20.8779Z" fill="url(#paint1_linear_6562_9097)"/>
<path d="M30.6388 21.7683C30.5432 21.528 30.0902 21.4361 29.8172 21.4395C29.7084 21.4395 29.5074 21.4733 29.4254 21.5459C29.3638 21.5998 29.3092 21.7489 29.2922 21.8028C29.2751 21.8568 29.2411 21.9771 29.2116 22.0539C29.157 22.1983 29.1729 22.3489 29.1896 22.5034C29.2147 22.7417 29.3115 23.0293 29.5725 23.0774C29.5996 22.9835 29.5202 22.9307 29.4951 22.8418C29.4666 22.7406 29.4499 22.6364 29.4455 22.5313C29.4428 22.3761 29.5287 22.2375 29.6116 22.2422C29.6945 22.2468 29.665 22.338 29.6681 22.4098C29.6675 22.5283 29.678 22.6465 29.6995 22.763C29.7494 22.9734 29.8997 23.1147 30.072 23.1356C30.0952 23.0495 30.0189 22.9804 29.9798 22.907C29.9132 22.784 29.9202 22.6509 29.9241 22.5399C29.9279 22.4421 29.9957 22.2204 30.1459 22.2763C30.2176 22.3027 30.1393 22.5274 30.1482 22.5903C30.1997 22.9695 30.396 23.0949 30.5548 23.0677C30.5831 22.9932 30.3353 22.796 30.4173 22.4525C30.4712 22.2239 30.712 21.9542 30.6388 21.7683Z" fill="#4F5252"/>
<path d="M33.1009 21.593C33.0049 21.3528 32.4284 21.4941 32.1554 21.4975C32.0466 21.4975 31.8457 21.5313 31.7632 21.6039C31.702 21.6578 31.647 21.8065 31.6304 21.8604C31.6137 21.9144 31.5793 22.0351 31.5499 22.1119C31.4945 22.2559 31.5111 22.4069 31.5274 22.561C31.5526 22.7993 31.649 23.0873 31.9103 23.1354C31.9382 23.0415 31.8584 22.9883 31.8329 22.8994C31.8039 22.7983 31.7871 22.6941 31.7829 22.5889C31.7802 22.4356 31.8662 22.2951 31.949 22.2998C32.0319 22.3044 32.0025 22.3957 32.0056 22.4678C32.0051 22.586 32.0154 22.704 32.0366 22.8203C32.0869 23.0306 32.2371 23.1723 32.4094 23.1932C32.4326 23.1071 32.3568 23.038 32.3177 22.9642C32.2507 22.8412 32.2576 22.7085 32.2615 22.5971C32.2654 22.4993 32.3328 22.2777 32.4834 22.3336C32.555 22.3599 32.4772 22.5847 32.4834 22.6475C32.5349 23.0267 32.7316 23.137 32.8903 23.1106C32.9186 23.036 32.723 22.8606 32.7532 22.5101C32.7982 21.9982 33.1753 21.7789 33.1009 21.593Z" fill="#4F5252"/>
<path d="M34.7312 21.7683C34.636 21.528 34.183 21.4361 33.9108 21.4395C33.8012 21.4395 33.5836 21.4574 33.5178 21.5459C33.1631 22.0248 33.2657 22.3493 33.2823 22.5034C33.3075 22.7417 33.4039 23.0432 33.6649 23.0918C33.6928 22.9982 33.6134 22.9307 33.5875 22.8418C33.5583 22.7407 33.5413 22.6365 33.5367 22.5313C33.5344 22.3761 33.62 22.2375 33.7028 22.2422C33.7857 22.2468 33.7567 22.338 33.7598 22.4098C33.7595 22.5283 33.7699 22.6465 33.7907 22.763C33.8411 22.9734 33.9913 23.1147 34.1636 23.1356C34.1864 23.0495 34.1113 22.9804 34.0718 22.907C34.0045 22.784 34.0114 22.6509 34.0157 22.5399C34.0192 22.4421 34.0869 22.2204 34.2375 22.2763C34.3088 22.3027 34.2313 22.5274 34.2399 22.5903C34.291 22.9695 34.4877 23.0797 34.6456 23.0533C34.6743 22.9788 34.4265 22.7952 34.509 22.4525C34.5639 22.2239 34.8052 21.9542 34.7312 21.7683Z" fill="#4F5252"/>
<path d="M36.4223 21.7542C36.3263 21.5144 35.8737 21.4224 35.6011 21.4259C35.4919 21.4259 35.2913 21.4596 35.2085 21.5322C35.1465 21.5866 35.0923 21.7356 35.0753 21.7892C35.0583 21.8427 35.0242 21.9638 34.9948 22.0407C34.9405 22.185 34.956 22.3356 34.9723 22.4901C34.9982 22.7284 35.0943 23.0016 35.3552 23.0501C35.3831 22.9558 35.3033 22.9178 35.2778 22.8285C35.2487 22.7274 35.2318 22.6232 35.2275 22.518C35.2251 22.3628 35.3107 22.2242 35.3936 22.2289C35.4764 22.2335 35.447 22.3244 35.4501 22.3969C35.4498 22.5153 35.4605 22.6334 35.4818 22.7497C35.5318 22.9605 35.6816 23.1018 35.8539 23.1223C35.8775 23.0366 35.8009 22.9671 35.7626 22.8941C35.696 22.7707 35.7021 22.638 35.7064 22.5266C35.7099 22.4292 35.7564 22.2762 35.9074 22.3325C35.979 22.3589 35.9221 22.5149 35.931 22.5778C35.9829 22.957 36.1792 23.0529 36.3371 23.0265C36.3654 22.952 36.1184 22.7823 36.2001 22.44C36.2527 22.2099 36.4959 21.9405 36.4223 21.7542Z" fill="#4F5252"/>
<path d="M28.1339 20.8213C28.1308 20.8213 27.3665 19.5999 27.8942 17.8204C28.8835 14.4938 29.8457 11.5329 29.1332 11.914C28.4049 12.3021 26.4349 13.732 26.0458 15.7564C25.731 17.3977 26.1465 19.1691 28.1339 20.8213Z" fill="#868889"/>
<path d="M28.1548 20.8011C27.9449 20.493 26.9506 18.9483 26.9281 17.5021C26.913 16.4985 27.1163 15.867 27.2766 14.8843C26.9177 15.2615 26.3624 14.9231 26.5042 14.5078C26.3621 14.7166 26.2227 15.0388 26.1069 15.5026C26.0273 15.7995 25.9771 16.1036 25.9571 16.4104C25.8796 17.8375 26.2378 19.4629 27.881 20.7716C28.0932 20.9401 28.1784 20.8365 28.1548 20.8011Z" fill="#121617"/>
<path d="M26.9517 16.7456C27.0008 16.4964 26.9803 16.2861 27.0291 15.9938C26.614 16.4208 26.0588 16.1693 26.0611 15.7051C26.0074 15.9368 25.9733 16.1728 25.9593 16.4103C25.9554 16.4906 25.9519 16.5717 25.9512 16.6532C26.1285 17.0189 26.6663 17.0887 26.9517 16.7456Z" fill="white"/>
<path d="M29.1581 10.1426C29.5754 8.53772 31.1567 8.31067 32.0864 9.5934C32.2711 9.84801 32.5282 10.6382 32.6033 10.8404C32.9065 11.65 33.579 11.6244 33.5825 11.6652C33.6247 12.1864 34.1246 13.1629 34.1246 13.1629C34.1246 13.1629 35.3473 15.192 35.0608 17.7221C34.7743 20.2523 33.9379 22.2581 32.7221 21.9988C31.7294 21.7869 31.2249 21.8234 30.641 21.96C30.2778 22.0454 29.697 22.0124 29.2471 21.7822C28.7972 21.5521 28.2121 20.9885 27.9353 20.55C27.6585 20.1114 26.4946 18.4642 27.0366 15.8095C27.4262 13.9027 28.0433 13.3985 28.4805 12.3941C28.9861 11.2285 28.9497 10.9444 29.1581 10.1426Z" fill="url(#paint2_linear_6562_9097)"/>
<path d="M34.0205 10.0981C34.1057 8.71567 33.1807 7.75664 32.3277 7.54938C30.5199 7.1112 29.3463 8.7836 29.1055 10.4028C29.5581 9.05334 31.0387 8.41915 31.8809 9.78533C32.3068 10.4801 32.3389 11.6634 33.5965 11.6805C33.7049 11.6805 33.9093 11.6122 34.0224 11.5932C34.2243 11.576 34.423 11.5314 34.6129 11.4604C34.6059 10.9668 34.2729 10.4525 34.0205 10.0981Z" fill="url(#paint3_radial_6562_9097)"/>
<path d="M36.3033 12.1724C34.9326 12.0343 34.0963 13.1078 34.0963 13.1078C34.0963 13.1078 33.7257 13.0065 33.584 12.9867C33.0919 12.9165 32.8828 12.9335 32.8828 12.9335C32.8862 13.21 32.9842 13.4769 33.1604 13.6896C33.0257 14.1029 33.3711 14.5202 33.3711 14.5202C33.2905 14.6278 33.2188 14.7417 33.1566 14.8609C33.1178 14.9944 33.4597 15.2855 34.176 14.9673C34.8923 14.649 35.2648 14.4057 35.9486 14.2427C36.6324 14.0796 37.3626 14.5997 37.8845 14.6801C37.9662 14.7841 38.0685 14.6024 38.1986 14.4794C38.3287 14.3564 38.3492 14.3048 38.3492 14.2535C38.3438 13.5246 37.6162 12.3048 36.3033 12.1724Z" fill="url(#paint4_radial_6562_9097)"/>
<path d="M39.843 17.2988C39.1136 16.162 38.5266 15.5523 38.5266 15.5523C38.5266 15.5523 38.6427 14.8607 38.3217 14.0332C38.3574 14.686 36.5898 14.2273 36.5898 14.2273C36.5898 14.2273 37.3642 15.2554 36.9325 16.5082C36.9259 16.5346 39.6622 17.0423 39.843 17.2988Z" fill="#868889"/>
<path d="M33.1448 10.8398C33.1448 10.8398 33.7469 11.3611 34.4117 11.5272C34.2406 11.5726 34.1504 11.6025 34.021 11.5932C33.8108 11.5771 33.6044 11.5277 33.4097 11.4469C33.2707 11.3848 33.0771 11.0762 33.1448 10.8398Z" fill="#868889"/>
<path d="M34.0209 10.0989C34.0209 10.0989 34.5924 10.7288 34.6118 11.4612C34.6118 11.4612 33.5683 11.094 33.0781 10.3807C33.2636 10.1963 33.7298 10.005 34.0209 10.0989Z" fill="#868889"/>
<path d="M34.3603 11.2153C34.1037 11.0777 33.8618 10.914 33.6386 10.7267C33.5224 10.6285 33.3157 10.4434 33.3184 10.4018C33.3211 10.3603 33.5712 10.2373 33.6111 10.2466C33.651 10.2559 33.8217 10.4531 33.9693 10.6347C34.2027 10.9227 34.4122 11.2429 34.3603 11.2153Z" fill="white"/>
<path d="M33.1835 14.815C33.1835 14.815 33.5471 15.3196 34.3695 14.8057C35.1082 14.3438 35.7928 14.1459 36.3558 14.1921C37.4833 14.2817 37.9285 15.6394 36.9877 16.4746C36.0948 17.259 36.9489 19.1914 37.9711 20.8425C37.635 21.4499 36.518 22.0674 35.2116 21.9443C32.8312 21.72 31.8965 19.6933 31.8965 18.1105C31.8965 16.8332 32.4014 15.8098 33.1835 14.815Z" fill="url(#paint5_linear_6562_9097)"/>
<path d="M36.0064 18.2513C36.0606 17.3975 36.4323 16.4598 37.5056 16.223C38.6618 15.9688 39.5434 16.8933 39.9213 17.4161C40.008 17.5364 40.3453 18.0262 40.5969 18.3639C41.0945 18.8793 42.1953 20.0507 42.0106 20.4384C42.4365 20.8587 42.8516 21.4001 42.6494 21.6027C43.2221 22.1931 43.9787 22.4337 43.8273 23.0038C44.046 23.1979 44.3492 23.6279 44.1471 23.8468C44.4836 24.1185 44.4537 24.6689 44.1084 24.5132C44.0062 24.4667 37.9362 21.3151 37.0859 20.563C36.4114 19.9633 35.9514 19.1071 36.0064 18.2513Z" fill="#121617"/>
<path d="M32.7769 9.38153C32.7769 9.45659 32.7547 9.52996 32.7131 9.59237C32.6715 9.65479 32.6124 9.70344 32.5432 9.73218C32.474 9.76092 32.3979 9.76846 32.3245 9.75385C32.251 9.73923 32.1836 9.70312 32.1306 9.65007C32.0776 9.59703 32.0415 9.52943 32.0269 9.45582C32.0122 9.38222 32.0196 9.30591 32.0482 9.23654C32.0768 9.16718 32.1253 9.10787 32.1875 9.06611C32.2498 9.02436 32.3229 9.00203 32.3978 9.00195C32.4476 9.0019 32.4969 9.01168 32.5428 9.03074C32.5888 9.04979 32.6306 9.07774 32.6658 9.11299C32.701 9.14824 32.729 9.19011 32.748 9.23618C32.7671 9.28226 32.7769 9.33165 32.7769 9.38153Z" fill="white"/>
<path d="M32.277 9.24082C32.3502 9.21327 32.3571 9.38404 32.4408 9.32349C32.524 9.29167 32.495 9.22219 32.4578 9.15039C32.7412 9.16048 32.7544 9.54433 32.4985 9.60294C32.3347 9.64019 32.1682 9.40189 32.277 9.24082Z" fill="#121617"/>
<path d="M33.1602 13.6914C33.1883 13.9772 33.3199 14.2428 33.5299 14.4381C33.7967 14.5876 33.9221 14.2689 33.9221 14.2689C33.5036 14.109 33.1602 13.6914 33.1602 13.6914Z" fill="#868889"/>
<path d="M35.259 14.0802C35.1863 14.0623 35.1205 14.0232 35.0699 13.9678C35.0194 13.9124 34.9864 13.8432 34.9751 13.769C34.9637 13.6947 34.9746 13.6188 35.0064 13.5508C35.0381 13.4828 35.0892 13.4258 35.1533 13.3869C35.2174 13.348 35.2915 13.329 35.3663 13.3324C35.4412 13.3358 35.5133 13.3613 35.5737 13.4058C35.634 13.4503 35.6799 13.5117 35.7054 13.5823C35.7309 13.6528 35.735 13.7294 35.7171 13.8023C35.7052 13.8507 35.684 13.8964 35.6546 13.9365C35.6251 13.9767 35.5881 14.0107 35.5455 14.0365C35.503 14.0623 35.4558 14.0794 35.4066 14.0869C35.3575 14.0945 35.3073 14.0922 35.259 14.0802Z" fill="white"/>
<path d="M35.5225 13.6414C35.466 13.62 35.3878 13.5917 35.3456 13.6736C35.3034 13.7555 35.3688 13.8222 35.4431 13.8288C35.4014 13.8659 35.3473 13.8858 35.2916 13.8846C35.2359 13.8835 35.1826 13.8614 35.1424 13.8227C35.1022 13.7841 35.078 13.7316 35.0746 13.6759C35.0712 13.6201 35.0889 13.5651 35.1241 13.5218C35.2248 13.3864 35.5012 13.4485 35.5225 13.6414Z" fill="#121617"/>
<path d="M41.6158 22.3314C41.3669 22.1827 40.0462 21.4853 39.4398 21.1204C38.8447 20.7626 38.2922 20.3873 37.8566 19.9902C37.8636 20.0539 37.814 20.1761 37.821 20.1843C38.2244 20.6888 39.309 21.2679 39.4247 21.3327C39.5405 21.3975 41.3518 22.3806 41.6004 22.5289C41.794 22.6453 43.0113 23.3017 43.6014 23.6785C43.3148 23.3975 42.7472 23.0059 41.6158 22.3314Z" fill="url(#paint6_linear_6562_9097)"/>
<path d="M41.6781 21.5657C41.4675 21.4268 40.3439 20.7507 39.8301 20.4095C39.3825 20.1122 39.017 19.8409 38.7378 19.582C38.718 19.6293 38.6831 19.6688 38.6387 19.6942C38.9922 20.0567 39.7158 20.5337 39.8088 20.5939C40.4922 21.0328 41.4458 21.5824 41.6568 21.7217C41.821 21.83 42.7313 22.3707 43.2304 22.7215C42.9903 22.4654 42.6368 22.1976 41.6781 21.5657Z" fill="url(#paint7_linear_6562_9097)"/>
<path d="M41.519 20.6666C41.356 20.5463 40.4837 19.9606 40.0864 19.6645C39.8563 19.4961 39.6349 19.316 39.4231 19.125C39.4093 19.1789 39.3828 19.2287 39.3457 19.2702C39.5693 19.4728 39.8036 19.6633 40.0477 19.8407C40.1251 19.8931 41.3177 20.6945 41.4803 20.8137C41.6077 20.9072 42.2159 21.2911 42.6031 21.5942C42.4196 21.3792 42.2593 21.2146 41.519 20.6666Z" fill="url(#paint8_linear_6562_9097)"/>
<path d="M41.8414 20.2403C41.7252 20.0777 41.6602 20.0171 41.1673 19.591C41.0585 19.4971 40.473 19.0581 40.209 18.8279C40.1509 18.7775 40.0959 18.7282 40.0429 18.6797C40.0303 18.726 40.0113 18.7703 39.9863 18.8113C40.0769 18.8951 40.1501 18.958 40.1702 18.9743C40.2206 19.0158 41.0197 19.6434 41.1282 19.7373L41.8414 20.2403Z" fill="url(#paint9_linear_6562_9097)"/>
<path d="M36.95 20.4392C37.2923 20.8176 37.5455 20.7606 37.7751 20.6185C37.9281 20.5246 37.9571 20.3438 37.949 20.1606C38.1383 20.2743 38.3644 20.2832 38.5321 20.1606C38.6827 20.0488 38.7474 19.859 38.7222 19.6638C38.905 19.7887 39.121 19.8105 39.2743 19.6975C39.4133 19.5939 39.4621 19.4049 39.4226 19.2101C39.5992 19.3265 39.8319 19.337 39.9748 19.2314C40.101 19.1383 40.1188 18.9811 40.0878 18.8002C40.204 18.9135 40.4692 18.9469 40.597 18.839C40.7674 18.6954 40.6744 18.4121 40.5041 18.168C40.1289 18.4008 38.3211 19.5473 36.3379 19.6622C36.5741 20.0923 36.95 20.4392 36.95 20.4392Z" fill="white"/>
<path d="M39.9213 17.3886C39.5438 16.8655 38.5971 15.9557 37.4913 16.2099C36.4324 16.4533 36.0587 17.3984 36.001 18.2223C35.9832 18.489 36.1997 18.6919 36.4657 18.6803C36.5645 18.6768 36.6599 18.6436 36.7396 18.585C36.8193 18.5263 36.8796 18.445 36.9125 18.3516C36.9411 18.4356 36.9958 18.5083 37.0685 18.559C37.1412 18.6098 37.2281 18.6359 37.3167 18.6337C37.5184 18.626 37.6203 18.5084 37.6783 18.3562C37.7666 18.5258 37.8917 18.6221 38.0655 18.6198C38.2816 18.6174 38.3366 18.4913 38.383 18.3325C38.4109 18.4071 38.4609 18.4712 38.5264 18.5163C38.5918 18.5613 38.6695 18.5851 38.7489 18.5844C38.9425 18.5775 39.032 18.4575 39.0486 18.3128C39.1315 18.4781 39.2383 18.591 39.38 18.5844C39.4379 18.5804 39.4929 18.5575 39.5366 18.5192C39.5803 18.481 39.6103 18.4295 39.622 18.3725C39.6494 18.432 39.692 18.4831 39.7456 18.5207C39.7991 18.5583 39.8616 18.5809 39.9268 18.5864C40.0448 18.5864 40.1691 18.4878 40.1715 18.3659C40.3836 18.6337 40.6616 18.4583 40.5439 18.2642C40.547 18.2639 39.9589 17.4399 39.9213 17.3886Z" fill="url(#paint10_radial_6562_9097)"/>
<path d="M31.5952 11.3264C31.3764 12.2291 30.7046 12.84 30.0975 12.6929C29.4904 12.5458 29.1745 11.692 29.394 10.7888C29.6135 9.88567 30.2845 9.27516 30.8916 9.42226C31.4988 9.56935 31.8143 10.4232 31.5952 11.3264Z" fill="url(#paint11_linear_6562_9097)"/>
<path d="M36.4353 16.4873C35.8619 16.9251 35.1231 16.9193 34.7847 16.4745C34.4463 16.0297 34.6368 15.3137 35.2106 14.8755C35.7844 14.4373 36.5232 14.4435 36.8616 14.8887C37.2 15.3338 37.0091 16.0491 36.4353 16.4873Z" fill="url(#paint12_linear_6562_9097)"/>
<path d="M33.9844 13.7118C33.9534 13.373 34.1067 13.2558 33.9337 13.0994C33.8879 13.0639 33.8351 13.0386 33.7788 13.0252C33.7037 13.007 33.6328 12.9918 33.5852 12.9864C33.1059 12.9181 32.8956 12.9329 32.8848 12.9332C32.9289 13.0772 32.9912 13.3446 33.3959 13.687C33.8992 14.112 34.0041 13.9272 33.9844 13.7118Z" fill="#868889"/>
<path d="M33.137 13.1539C33.2657 13.2216 33.3908 13.2959 33.5118 13.3766C33.7054 13.5032 33.877 13.5404 33.8661 13.6588C33.8537 13.8016 33.7809 13.8804 33.4453 13.599C33.2956 13.4777 33.1723 13.327 33.0828 13.1562C33.0654 13.1205 33.0817 13.1251 33.137 13.1539Z" fill="white"/>
</g>
<defs>
<linearGradient id="paint0_linear_6562_9097" x1="54.5" y1="32" x2="35.3568" y2="59.4482" gradientUnits="userSpaceOnUse">
<stop stop-opacity="0"/>
<stop offset="1"/>
</linearGradient>
<linearGradient id="paint1_linear_6562_9097" x1="37.07" y1="20.9532" x2="38.9242" y2="22.3993" gradientUnits="userSpaceOnUse">
<stop offset="0.23" stop-color="white"/>
<stop offset="0.39" stop-color="#EBECEB"/>
<stop offset="0.71" stop-color="#BBBCBB"/>
</linearGradient>
<linearGradient id="paint2_linear_6562_9097" x1="31.5141" y1="21.2994" x2="30.0584" y2="9.2752" gradientUnits="userSpaceOnUse">
<stop offset="0.06" stop-color="#FCE6E4"/>
<stop offset="0.1" stop-color="#F9C8C2"/>
<stop offset="0.19" stop-color="#F59689"/>
<stop offset="0.23" stop-color="#F38273"/>
<stop offset="0.32" stop-color="#F1615C"/>
<stop offset="0.41" stop-color="#EF4349"/>
<stop offset="0.51" stop-color="#ED2E3A"/>
<stop offset="0.6" stop-color="#EC2132"/>
<stop offset="0.69" stop-color="#EC1D2F"/>
</linearGradient>
<radialGradient id="paint3_radial_6562_9097" cx="0" cy="0" r="1" gradientTransform="matrix(-1.21459 -1.55329 0.790287 -0.620923 32.1285 8.80664)" gradientUnits="userSpaceOnUse">
<stop offset="0.1" stop-color="#424546"/>
<stop offset="0.37" stop-color="#353839"/>
<stop offset="0.42" stop-color="#303334"/>
<stop offset="0.79" stop-color="#121617"/>
</radialGradient>
<radialGradient id="paint4_radial_6562_9097" cx="0" cy="0" r="1" gradientTransform="matrix(1.92783 -0.498051 0.238494 0.956259 35.923 13.4346)" gradientUnits="userSpaceOnUse">
<stop offset="0.1" stop-color="#424546"/>
<stop offset="0.37" stop-color="#353839"/>
<stop offset="0.42" stop-color="#303334"/>
<stop offset="0.79" stop-color="#121617"/>
</radialGradient>
<linearGradient id="paint5_linear_6562_9097" x1="37.1487" y1="21.6478" x2="33.6589" y2="15.2676" gradientUnits="userSpaceOnUse">
<stop offset="0.1" stop-color="#FCE6E4"/>
<stop offset="0.19" stop-color="#F9C5BF"/>
<stop offset="0.36" stop-color="#F38273"/>
<stop offset="0.39" stop-color="#F2776B"/>
<stop offset="0.55" stop-color="#EF464B"/>
<stop offset="0.66" stop-color="#ED2837"/>
<stop offset="0.73" stop-color="#EC1D2F"/>
</linearGradient>
<linearGradient id="paint6_linear_6562_9097" x1="37.6158" y1="20.0585" x2="43.6805" y2="23.6383" gradientUnits="userSpaceOnUse">
<stop offset="0.1" stop-color="#424546"/>
<stop offset="0.36" stop-color="#3F4243"/>
<stop offset="0.57" stop-color="#353839"/>
<stop offset="0.77" stop-color="#242728"/>
<stop offset="0.91" stop-color="#121617"/>
</linearGradient>
<linearGradient id="paint7_linear_6562_9097" x1="38.5345" y1="19.5933" x2="43.202" y2="22.7031" gradientUnits="userSpaceOnUse">
<stop offset="0.1" stop-color="#424546"/>
<stop offset="0.36" stop-color="#3F4243"/>
<stop offset="0.57" stop-color="#353839"/>
<stop offset="0.77" stop-color="#242728"/>
<stop offset="0.91" stop-color="#121617"/>
</linearGradient>
<linearGradient id="paint8_linear_6562_9097" x1="39.4065" y1="19.146" x2="42.5513" y2="21.6556" gradientUnits="userSpaceOnUse">
<stop offset="0.1" stop-color="#424546"/>
<stop offset="0.39" stop-color="#343738"/>
<stop offset="0.91" stop-color="#121617"/>
</linearGradient>
<linearGradient id="paint9_linear_6562_9097" x1="40.3228" y1="19.0007" x2="42.2849" y2="20.5668" gradientUnits="userSpaceOnUse">
<stop offset="0.1" stop-color="#424546"/>
<stop offset="0.38" stop-color="#303435"/>
<stop offset="0.91" stop-color="#121617"/>
</linearGradient>
<radialGradient id="paint10_radial_6562_9097" cx="0" cy="0" r="1" gradientTransform="matrix(1.80797 -0.15728 0.105126 1.21424 37.8889 17.3924)" gradientUnits="userSpaceOnUse">
<stop offset="0.11" stop-color="#D9DAD9"/>
<stop offset="0.35" stop-color="#BDBEBE"/>
<stop offset="0.56" stop-color="#ABADAE"/>
<stop offset="0.71" stop-color="#A5A7A8"/>
</radialGradient>
<linearGradient id="paint11_linear_6562_9097" x1="30.6642" y1="10.1063" x2="30.0803" y2="13.4737" gradientUnits="userSpaceOnUse">
<stop offset="0.06" stop-color="#F05B4F"/>
<stop offset="0.12" stop-color="#EF524B"/>
<stop offset="0.34" stop-color="#EE353B"/>
<stop offset="0.54" stop-color="#EC2332"/>
<stop offset="0.67" stop-color="#EC1D2F"/>
</linearGradient>
<linearGradient id="paint12_linear_6562_9097" x1="36.3631" y1="15.1632" x2="34.3597" y2="16.8771" gradientUnits="userSpaceOnUse">
<stop offset="0.06" stop-color="#F05B4F"/>
<stop offset="0.12" stop-color="#EF524B"/>
<stop offset="0.35" stop-color="#EE353B"/>
<stop offset="0.54" stop-color="#EC2332"/>
<stop offset="0.69" stop-color="#EC1D2F"/>
</linearGradient>
<clipPath id="clip0_6562_9097">
<rect width="38.2254" height="29.155" fill="white" transform="translate(15.8867 7.47852)"/>
</clipPath>
</defs>
</svg>
